<?xml version="1.0" encoding="utf-8"?>
<svg width="75" height="75" xmlns:v="https://vecta.io/nano" version="1.2" baseProfile="tiny-ps" xmlns="http://www.w3.org/2000/svg">
  <title>bimi</title>
  <path d="M0 0h75v75H0V0z" fill="#675d5a" />
  <path d="M46 14l.445 1.828C48.093 21.701 49.594 23.846 55 27c3.432 4.734 4.148 8.799 4.188 14.563l.043 2.879C59 47 59 47 57 50h-2v2h-3v2c-1.75 2.188-1.75 2.188-4 4-3.018-.178-3.837-.837-6-3-1.521-.598-3.066-1.135-4.625-1.625l-2.477-.789L33 52v-2l-9 2v3l-3 2-2 3c-3.276-5.815-5.734-10.245-5-17l2 1 1 3c2.468-1.152 4.048-2.048 6-4-.323-3.597-.323-3.597-1-7H11c-.554-12.67-.554-12.67 3-18l1.871.141c4.739.202 8.203.097 12.441-2.141 5.678-2.9 11.462-2.346 17.688-2z" fill="#c87c5c" />
  <path d="M0 0h28v4c-2.763.597-5.16 1-8 1v2h-4v7h10v2l4 1c-5.502 2.147-10.316 2.895-16 1-2.446 5.871-2.581 11.719-3 18l12-1c1.145 5.197 1.145 5.197 1 8-2.437 3-2.437 3-5 5l-3-1-1-3c.384 6.053 1.404 10.601 4.063 16.055C20 62 20 62 21 65l2.375.688C26 67 26 67 29 75H0V0z" fill="#4b3a36" />
  <path d="M46 14l.445 1.828c1.245 4.435 1.914 6.662 5.617 9.609L55 27c2 2 2 2 2.125 5.125L57 35c-3 0-3 0-4.5-1.437L51 32c-6.422-2.141-12.023-1.278-18.137 1.332-2.648.949-5.085.876-7.863.668v2H11c-.429-12.857-.429-12.857 3-18l1.871.141c4.739.202 8.203.097 12.441-2.141 5.678-2.9 11.462-2.346 17.688-2z" fill="#ce815f" />
  <path d="M35 2l4.813-.125 2.707-.07C45 2 45 2 48 4V2l2 1v1l3.938.375c2.215.211 2.215.211 4.063.625l1 2 3 1c1.803 3.416 2.219 6.169 2 10h3c1.176 3.674 1.074 7.169 1 11-2.486.907-3.629 1.142-6.141.18C59.762 27.882 57.833 26.654 56 25c-.5-2.812-.5-2.812 0-5l-1.687.813L52 21c-2.687-2.375-2.687-2.375-5-5-1.107-1.332-1.107-1.332-3.906-1.133l-3.594.008-3.594-.008C33.107 14.668 33.107 14.668 32 16c-3.561.158-6.583-.039-10-1l-6-1-1-4 7-2V6h13l-1-2 1-2z" fill="#261716" />
  <path d="M70 42h2c-.11 3.737-.986 4.986-3.625 7.688-5.524 4.412-11.544 8.186-17.456 12.049l-5.489 3.686-3.242 2.203-2.895 1.977C37 71 37 71 35 71v2h-2v2c-2.312-.062-2.312-.062-5-1l-1.312-3.5L25 67c-2.786-.971-5.001-.951-8-1l4-1-3-4c1.049-2.622 1.649-3.794 4.125-5.25L24 55l-1-4c3.473-1.158 6.361-1.069 10-1l1 2c2.048.835 2.048.835 4.438 1.5 4.346 1.284 4.346 1.284 6.563 3.5 3.742.241 6.818.303 10.438-.625C57.819 54.279 57.734 52.054 58 49l3-1v-2l2.813.25c3.278.116 3.278.116 4.938-2.25L70 42z" fill="#4e2821" />
  <path d="M0 43l5 1v8l5-2v2h4l1-2 2.438 5.813 1.371 3.27L21 65l2.375.688C26 67 26 67 29 75H0V43z" fill="#7c6864" />
  <path d="M28 0h47v32l-4 1-1-2-4-2h2l-1-11h-3l-.437-3.312C63.117 11.069 63.117 11.069 62 8l-5-1V6l-3.375-.312L50 5l-2-3v2L35 2l1 5-2.738-.105-3.574-.082-3.551-.105C22.703 7.028 22.111 7.456 20 10c-2.187-.312-2.187-.312-4-1V7h4V5l8-1V0z" fill="#393033" />
  <path d="M74 50h1v25H34c2.953-2.953 3.92-3.505 7.688-4.687C49.491 67.631 56.681 63.769 64 60l4-2v-2l5-4 1-2z" fill="#6b1515" />
  <path d="M5 28h3v8l15-1c1.145 5.197 1.145 5.197 1 8-2.437 3-2.437 3-5 5l-3-1-1-3-1 8h-4v-2l-5 2v-8l-5-1v-6h3v-3h3l-1-6z" fill="#4e4c57" />
  <path d="M51.563 31.5L54 33v2l-3 2-1 2c-1 2-1 2-4 4l-5.687.625-3.012.227L35 44l-.879-1.961c-.915-2.217-.915-2.217-3.059-2.664L29 39l-3-2v-2c16.705-7.229 16.705-7.229 25.563-3.5z" fill="#824b3a" />
  <path d="M33 50l1 2c1.949.764 1.949.764 4.25 1.375C42.212 54.607 44.931 56.129 48 59c-1.875.625-1.875.625-4 1l-2-2-.312 1.813C40.866 62.425 40.218 63.394 38 65c-3.187.688-3.187.688-6 1l-1-2 1-3-4-1 1 5c-2.867-.573-3.861-.861-6-3v-4c3.265-1.884 6.281-2.493 10-3l-1-3-7 1 1 3-5 1 1-2h2l-1-4c3.473-1.158 6.361-1.069 10-1z" fill="#6a3528" />
  <path d="M6 61v3h3v3l2 1v-2l4 1-1 1 1.938.875C18 70 18 70 19 72l3.5.5 3.5.5 1 2H0V63c3-2 3-2 6-2z" fill="#8b8586" />
  <path d="M47 16l1 2c3.894 1.52 3.894 1.52 8 2l.215 2.324c.538 2.809.538 2.809 2.852 4.258l2.496 1.23 2.504 1.27L66 30l-2 3h-2l1 13h-2v2l-1.437 1.375c-1.719 1.504-1.719 1.504-2 3.625C57 55 57 55 55.25 56.75 52.621 58.211 50.963 58.247 48 58l2-4h2v-2h3v-2h2c2.157-6.472 1.772-14.006-.871-20.301-1.704-2.565-4.023-3.812-6.609-5.402C48 23 48 23 47.063 19.188L47 16z" fill="#4e312a" />
  <path d="M22 6h9l-1 3c1.776 1.075 1.776 1.075 3 1h4v2l2.012-.105c8.77-.269 8.77-.269 12.988 3.105l-2 1v2h-2l-2-3c-3.09-.404-3.09-.404-6.562-.25l-3.566.047C33.104 14.677 33.104 14.677 32 16c-3.561.158-6.583-.039-10-1l-6-1-1-4 7-2V6z" fill="#34201c" />
  <path d="M12 14v6h-2l1.023 1.609c1.271 3.111.963 5.318.602 8.641l-.336 3.266L11 36H8v-8l-2 1v5H3v3H0V26l5 1-.937-4.875-.527-2.742C3.1 17 3.1 17 2 15c3.435-.625 6.491-1 10-1z" fill="#635454" />
  <path d="M32 52l3 4-12 2c1.391 4.915 1.391 4.915 4.125 6.313L29 65l-1-5 6 1-2 1v3l3.938-.375 2.215-.211L40 64l1-2v4h-2v2H29l-2 4-2-5-8-1 4-1-3-4c1.098-2.993 1.677-3.846 4.625-5.25L25 55v-2c2.491-.687 4.379-1 7-1z" fill="#452f2c" />
  <path d="M28 0h30l-1 5c-3.375.188-3.375.188-7 0l-2-3v2L35 2l1 5-2.738-.105-3.574-.082-3.551-.105C22.703 7.028 22.111 7.456 20 10c-2.187-.312-2.187-.312-4-1V7h4V5l8-1V0z" fill="#443634" />
  <path d="M63.23 54.359L65 55l-1 3h-2l-1 3c-5.222 3-5.222 3-8 3l-1 3c-5.598 3.797-12.643 5.881-19 8v-2h2v-2c1.418-1.142 1.418-1.142 3.402-2.391l2.187-1.394 2.348-1.466 4.695-2.969 2.29-1.445c3.189-2.051 6.266-4.256 9.315-6.508C61 54 61 54 63.23 54.359z" fill="#6b605d" />
  <path d="M5 0h23v4c-2.763.597-5.16 1-8 1v2c-4.161.082-7.947-.018-12-1V4H5V0z" fill="#9c6e52" />
  <path d="M48 30l1 2-3.875.25c-2.178.209-2.178.209-4.125.75-1.59 1.921-1.59 1.921-2 4h8v2c-4.07.708-8.056 1.128-12.187 1.25l-2.48.078C29.457 39.924 28.092 38.981 26 37v-2c7.557-3.27 13.713-5.702 22-5z" fill="#4b2822" />
  <path d="M22 35c2 4 2 4 1.875 6.5-1.047 2.991-2.508 4.439-4.875 6.5l-3-1-1-3-1 5h-1l-.586-6.055C12.136 40.773 12.136 40.773 10 39v-3l12-1z" fill="#784736" />
  <path d="M70 59v2h-3v2l-7.141 3.563-5.469 2.813C47.801 72.813 41.614 75.476 34 75c2.357-2.733 4.399-3.665 7.813-4.75 5.978-2.054 11.422-4.768 17.023-7.664C65.99 59 65.99 59 70 59z" fill="#93251d" />
  <path d="M66 30l3 1-5 6 3-3 4 2c-.77 8.009-.77 8.009-4 11h-4c-.871-3.051-1.222-5.891-1.312-9.062l-.113-2.598C62 33 62 33 63.832 31.129L66 30z" fill="#7d4032" />
  <path d="M75 66v9H55c3.165-3.165 4.765-3.789 8.938-5.062C67.131 68.952 71.774 66 75 66z" fill="#592021" />
  <path d="M42 58c-.731 3.253-1.225 4.99-4 7l-6 1-1-2 1-3-4-1 1 5c-2.867-.573-3.861-.861-6-3v-3c6.342-1.153 12.567-1.095 19-1z" fill="#945c47" />
  <path d="M0 43l5 1v8l5-2v2h4v6l-5 2 1-3h2v-2H4v-2H0V43z" fill="#59657c" />
  <path d="M14 64c7.59-.292 7.59-.292 11 2 1.266 2.164 1.266 2.164 2.25 4.625l1.016 2.477L29 75l-4.875-.812-2.742-.457C19 73 19 73 17 70c-2.05-1.192-2.05-1.192-4-2l3-1v-2l-2-1z" fill="#554e53" />
  <path d="M47 61c-.351 2.834-.785 3.816-2.996 5.703l-2.441 1.547-2.434 1.578C37 71 37 71 35 71v2h-2v2l-5-1 1-6c3.576-1.238 6.337-.749 10 0v-2l2-1v-3c2-1 2-1 6-1z" fill="#1d1210" />
  <path d="M62 35l1 11h-2v2l-1.437 1.375c-1.719 1.504-1.719 1.504-2 3.625C57 55 57 55 55.25 56.75 52.621 58.211 50.963 58.247 48 58l2-4h2v-2h3v-2h2c1.286-3.858 1.372-7.558 1.621-11.602L59 36c2-1 2-1 3-1z" fill="#653f34" />
  <path d="M5 28h3v7H6l1 17H5v-8l-5-1v-6h3v-3h3l-1-6z" fill="#2c3851" />
  <path d="M7.438 69.375l2.934.273C13 70 13 70 16 71v4H0v-5c2.683-1.342 4.466-.917 7.438-.625z" fill="#453932" />
  <path d="M29 23h2l-1 3 1 1h4l-2 4h-2v3h-5v-2l-6-2c2-2 2-2 5-3l2.063-2.062L29 23z" fill="#db8965" />
  <path d="M0 53h4v2h8v2l-4.875 3.125-2.742 1.633C2 63 2 63 0 63V53z" fill="#374258" />
  <path d="M14 9l2 1v4h10v2l4 1c-5.644 2.441-10.978 2.193-17 2l1-10z" fill="#3e251f" />
  <path d="M73 64h2c-1 3-1 3-3.437 4.5-3.715 1.564-7.408 2.698-11.293 3.754-2.509.713-2.509.713-5.27 2.746-2.187-.375-2.187-.375-4-1 1.063-1.937 1.063-1.937 3-4a176.79 176.79 0 0 1 7-1l2-1.5c2.821-2.115 5.554-2.11 9-2.5l1-1z" fill="#410e0f" />
  <path d="M62 50l1 3-5.187 3.875-2.918 2.18C52.289 60.806 49.952 61.975 47 63v-2l-6 1v-5l3 1v2l2.082-.84 2.73-1.098 2.707-1.09L57 55v-2l5-1v-2z" fill="#301e1a" />
  <path d="M69 30l3 2h3v10l-5-1 1-5-4-1v2h-3c1.293-2.884 2.659-4.872 5-7z" fill="#6c362c" />
  <path d="M28 60l6 1-2 1v3l3.938-.375 2.215-.211L40 64l1-2v4h-2v2l-4.312.063-2.426.035C30 68 30 68 27 67v-2h2l-1-5z" fill="#59382e" />
  <path d="M54 33v2l-3.375.438c-3.446.346-3.446.346-5.625 1.563h-6c.875-3.875.875-3.875 2-5 5.058-.927 8.311-1.491 13 1z" fill="#925844" />
  <path d="M35 2l1 5-2.738-.105-3.574-.082-3.551-.105C22.703 7.028 22.111 7.456 20 10c-2.187-.312-2.187-.312-4-1V7h4V5l5.813-1.5 3.27-.844C32 2 32 2 35 2z" fill="#432a24" />
  <path d="M63.352 54.301L65 55l-1 3h-4c-1.542 1.375-1.542 1.375-3 3l-4 2-1 2h-4c1.506-3.995 3.829-5.555 7.375-7.812l2.898-1.895C61 54 61 54 63.352 54.301z" fill="#7f716a" />
  <path d="M33 50l1 2c1.888.685 1.888.685 4.063 1.125l2.223.508L42 54v1c-5.415 1.231-5.415 1.231-8.375.063L32 54v-2l-7 1 1 3-5 1 1-2h2l-1-4c3.473-1.158 6.361-1.069 10-1z" fill="#703a2a" />
  <path d="M70 41l5 1c.67 7.768.67 7.768-2.375 11.5C70 56 70 56 68 56l-1 2-1-5 1.938-.875c2.215-.953 2.215-.953 3.063-3.125h2c-.256-2.343-.593-4.678-1-7l-2-1z" fill="#494142" />
  <path d="M18 70l1 2 3.5.5 3.5.5 1 2H16v-4l-5.957.195C8 71 8 71 5 69c4.996-.999 8.313-1.12 13 1z" fill="#927661" />
  <path d="M23 35v7l-4 1-.125-1.875L18 39c-2.996-1.305-2.996-1.305-6-2v-1l4.938-.5 2.777-.281L23 35z" fill="#49271e" />
  <path d="M0 17h4c1.607 3.215 1.057 6.436 1 10l-5-1v-9z" fill="#282a36" />
  <path d="M0 28h5c1 1 1 1 1.063 3.563L6 34H3v3H0v-9z" fill="#6982a6" />
  <path d="M24 0h4v4c-2.763.597-5.16 1-8 1v2c-1.937-.312-1.937-.312-4-1l-1-3 6.152-.586L23 2l1-2z" fill="#966950" />
  <path d="M70 59v2h-3v2l-4.812 2.563-2.707 1.441C57 68 57 68 54 67v-2c11.738-6 11.738-6 16-6z" fill="#a5261d" />
  <path d="M74 50h1c.316 3.473.422 5.376-1.562 8.313-3.113 2.155-5.704 2.4-9.437 2.688l2-3h2v-2l5-4 1-2z" fill="#5d1c1a" />
  <path d="M68 36h3c-.75 6.625-.75 6.625-3 10h-4c.706-3.669 2.277-6.705 4-10z" fill="#9d5843" />
  <path d="M47 16l1 2c3.894 1.52 3.894 1.52 8 2v4c-3.375.188-3.375.188-7 0-2.152-3.228-2.201-4.284-2-8z" fill="#58372d" />
  <path d="M52 66c-3.145 2.592-6.292 4.102-10.062 5.625l-3.16 1.289C36.87 73.66 34.942 74.353 33 75v-2h2v-2l6-3v2l4-1v-2c2.463-1.231 4.28-1.072 7-1z" fill="#5d504f" />
  <path d="M39.688 13.875l3.574.055L46 14l1 2-3-.187c-3.076-.025-5.294.566-8.125 1.75-3.327 1.385-5.362 1.645-8.875.438 4.811-3.207 6.872-4.24 12.688-4.125z" fill="#986148" />
  <path d="M32 52c1.688 2 1.688 2 3 4l-2.047.402-2.703.535-2.672.527L21 59v-2l4-2v-2c2.491-.687 4.379-1 7-1z" fill="#351e19" />
  <path d="M5 4h3v2h9c-1 3-1 3-3.25 4.188-2.748.812-4.904.975-7.75.813V9l5-1H5V4z" fill="#6d5045" />
  <path d="M6 61l1 5H2v4H0c-.187-3.375-.187-3.375 0-7 3-2 3-2 6-2z" fill="#ad9688" />
  <path d="M47 41l2 1v5l-4.875-.375-2.742-.211C39 46 39 46 37 44l1.934-.402 2.504-.535 2.496-.527c2.043-.343 2.043-.343 3.066-1.535z" fill="#bb6b50" />
  <path d="M6 24h4l1 12H8l-.437-3.75C7.213 29.435 6.796 26.73 6 24z" fill="#79605d" />
  <path d="M30 58l2 2h-4l1 5c-2.867-.573-3.861-.861-6-3v-3l7-1z" fill="#925841" />
  <path d="M9 0h15l-1 3-5.312-.375-2.988-.211C12 2 12 2 9 0z" fill="#b3866a" />
  <path d="M29 68c3.399 1.133 4.053 2.125 6 5h-2v2l-5-1 1-6z" fill="#261d1d" />
  <path d="M14 50c4 6 4 6 4 11h-5l1-11z" fill="#7b6560" />
  <path d="M24.75 15.938l2.984.027L30 16c-4.472 2.981-7.688 3.29-13 3l-2-2c3.311-1.001 6.301-1.104 9.75-1.062z" fill="#59372c" />
  <path d="M72 32h3v10l-3-1v-9z" fill="#7d5950" />
  <path d="M36 33c-.562 1.938-.562 1.938-2 4-3.625.75-3.625.75-7 1l-1-3 3.875-1.562 2.18-.879C34 32 34 32 36 33z" fill="#563026" />
  <path d="M69 31l-1.937 1.563C64.442 35.659 64.306 38.021 64 42l-2-1c-.347-5.289-.347-5.289 0-8 2.601-2.96 3.195-3.268 7-2z" fill="#a25f45" />
  <path d="M61 57l4 3-3.75 2.438-2.109 1.371C57.07 64.961 55.313 65.547 53 66v-2c2.905-2.042 4.401-3 8-3v-4z" fill="#524143" />
  <path d="M38 39v2l4 2c-1 1-1 1-4.062 1.063L35 44l-2-4c3-1 3-1 5-1z" fill="#7d4434" />
  <path d="M5 28h3v7H6l-1 4-2-1v-4h3l-1-6z" fill="#37415a" />
  <path d="M0 57l6 1 1 2c-4.75 3-4.75 3-7 3v-6z" fill="#424b60" />
  <path d="M14 58l-1 3c-2.062.688-2.062.688-4 1v2H6l-1-4c6.75-2 6.75-2 9-2z" fill="#67656d" />
  <path d="M68 16h2v11h-2l-.562-4.375-.316-2.461C67 18 67 18 68 16z" fill="#5b4549" />
  <path d="M35 2h10v3c-7.75.125-7.75.125-10-1V2z" fill="#332320" />
  <path d="M61 46l3 1c-.687 2.438-.687 2.438-2 5-2.625.813-2.625.813-5 1l2-5h2v-2z" fill="#442a25" />
  <path d="M25 40l2 1-1 4h-2v3l3 1-5 1 1-7h2v-3z" fill="#d98865" />
  <path d="M9 62h3l1 2 3 1-1 2-4-1v2l-3-1 1-5z" fill="#787074" />
  <path d="M37 55c3.938-.366 5.565-.302 8.875 2L48 59l-4 1-1-2-6-1v-2z" fill="#4f2f27" />
  <path d="M9 53h5v5l-5 2 1-3h2v-2H9v-2z" fill="#827f85" />
  <path d="M0 45h4l-1 7H0v-7z" fill="#61799c" />
  <path d="M10 36l8 3v3l-8-3v-3z" fill="#653c2e" />
  <path d="M43.625 29.938l2.477.027L48 30l1 2-4.312.625-2.426.352C40 33 40 33 37 31c2.405-1.203 3.95-1.101 6.625-1.062z" fill="#5a362b" />
  <path d="M65 51c2 3 2 3 1.625 5.688L66 59l-3-1 1-3-2-2 3-2z" fill="#5f5553" />
  <path d="M8 70l1 2H0v-2c2.903-1.452 4.909-.723 8 0z" fill="#564b42" />
  <path d="M22 44c1.245 2.491.777 3.411 0 6l4 1-5 1-2-5 3-3z" fill="#b66b4c" />
  <path d="M20 5l3 1-1 3c-1.937.75-1.937.75-4 1l-2-1V7h4V5z" fill="#5b392d" />
  <path d="M24 0h4v4l-4 1-1-3 1-2z" fill="#a27153" />
  <path d="M21 37c2 2 2 2 2 5l-4 1-1-4h3v-2z" fill="#341a15" />
  <path d="M25 34l3 1h-2l4 5-7-1v-3h2v-2z" fill="#a96148" />
  <path d="M12 15h-2v3H5v-3c3.133-1.044 3.99-.934 7 0z" fill="#816c64" />
  <path d="M5 0l7 1-3 1v2H5V0z" fill="#a8785d" />
  <path d="M28 0h7v2l-7 2V0z" fill="#503c36" />
  <path d="M42 58v3h-6l-1-2c2.463-1.231 4.28-1.072 7-1z" fill="#ae7154" />
  <path d="M70 42h2l-1 5-3 1c.875-4.875.875-4.875 2-6z" fill="#231816" />
  <path d="M40 62l2 1-1 3h-2v2h-6v-1h5v-3h2v-2z" fill="#402721" />
  <path d="M28 60l6 1-2 1-1 3-3-3v-2z" fill="#3e241e" />
  <path d="M61 54c2.188.313 2.188.313 4 1l-1 3-6-1c1.25-1.562 1.25-1.562 3-3z" fill="#756963" />
  <path d="M32 52l10 2v1c-5.415 1.231-5.415 1.231-8.375.063L32 54v-2z" fill="#694235" />
  <path d="M65 42h4l-1 4h-4l1-4z" fill="#a66049" />
  <path d="M62 35c.369 5.538.369 5.538-1.5 7.875L59 44v-8c2-1 2-1 3-1z" fill="#74483a" />
  <path d="M47 37v2l-7 1-1-2c2.928-.976 4.956-1.082 8-1z" fill="#3b221c" />
</svg>