<?xml version="1.0" encoding="UTF-8" standalone="yes"?>
<svg version="1.2" baseProfile="tiny-ps" viewBox="0 0 300 300" xmlns="http://www.w3.org/2000/svg">
  <title>bimi-svg-tiny-12-ps</title>
  <g>
    <g fill="#dc8e69" transform="matrix(.1 0 0 -.1 0 300)">
      <path d="M0 1500V0h3000v3000H0V1500z"/>
    </g>
    <g fill="#838996" transform="matrix(.1 0 0 -.1 0 300)">
      <path d="M2 1503 5 5l1497-3 1498-2v3000H0l2-1497zm1848 1028 5-44 14 17 14 17 18-17c10-9 21-30 24-46l7-30-11-11-10-10-7 16-6 17-10-6-9-6 13-16 13-15-22 12-23 11-6-24c-3-14-12-27-20-30s-14-10-14-16v-10h40v-20l-24 10c-27 10-37 5-29-16l5-14h-11c-6 0-11-5-11-11v-11l14 12 15 12 23-4 23-3-48-25c-60-30-70-42-74-88-5-48-10-62-24-62h-11l6 16 6 15-11-6-10-7 6-18 6-18-16-5-15-6 7-17 6-17-13 8-13 8 7-26 6-26-10-6-10-6v26l-10-15-9-14 11-13c6-7 14-11 17-8 4 2 8-2 8-10v-14l-8 5c-4 2-10 0-14-6-3-5-12-10-18-10h-12l15 10 14 9-7 8-8 7-9-14c-6-8-10-19-10-25v-10l50 2 50 2-4-7-4-7 33-1h33l17-18 18-17 7 10 6 11 37-2 37-3 6-15c8-23 8-23-60-24l-64-2 4 7 4 7-42-4c-24-3-58-7-76-9l-34-4-31-24c-18-13-47-29-65-35s-40-18-48-27c-8-8-24-15-34-15h-18l-6-15-5-15h-20c-11 0-23-4-26-10-3-5-17-10-31-10h-24v-20h-58l-4-12-5-13-25 12-26 12-7-7c-4-4-11-8-16-8-5-1-13-2-19-3-5 0-10-9-10-18v-17l-16 22c-8 12-21 22-29 22h-14l-7 35-6 35-10-6-10-6 6-90 6-89-37 3-36 3-3 34-4 34 15-13c9-7 18-10 22-7 9 10-17 37-36 37h-17l-11 38-10 37-2-47c0-26-6-58-13-72l-11-26-13 18-13 17-1-14v-14l-7 6-6 7-14-12-13-11 6 17 6 16-43-2-44-1 33-4c63-8 28-29-55-32-17-1-44 4-60 10-15 6-45 12-66 14l-38 4-35-21c-19-11-37-18-39-16-3 2 0 20 5 39l10 34-6 205-7 205 16 77c19 90 55 183 97 248l30 47 28 12 27 11-30-25-29-24 21 5 22 6-12-38c-6-22-15-42-20-45l-9-6 11-8c7-4 18-4 26-1l14 5 4-12 4-12 52 28 53 27h29c15 0 51 9 79 20l51 20-7-12c-4-7-14-22-23-34-9-11 1-3 21 17 40 40 64 49 87 34l15-9 4 12c2 7 13 17 24 23l20 11-11-21c-19-35-12-36 18-1l28 35 17-14 16-13v21l28-9c15-4 45-10 68-13l41-5 24 19 24 19-19-6-18-7 11 19c6 10 16 26 23 35l13 16 66 12c36 6 93 22 126 36l61 24 33-5 34-5 40 10c22 5 49 9 60 8l20-2 5-44zm-350 19v-11l21 11 21 12 16-7 16-6-13-8c-7-5-42-8-77-8h-64v7c0 14 14 20 47 20h33v-10zm-105-19c-3-6-11-11-17-11h-10l12 15c14 17 26 13 15-4zm542-48-5-18v60l5-12c2-7 2-21 0-30zm-573 14 19-14-24-21-23-22h-27c-34 0-59 9-59 21 0 5 8 9 18 9 9 0 28 9 42 20 30 23 31 24 54 7zm516-112c0-8-2-15-4-15s-6 7-10 15l-5 15h9c6 0 10-7 10-15zm-50-135c0-5-4-10-10-10-5 0-10 5-10 10 0 6 5 10 10 10 6 0 10-4 10-10zm-62-95-5-25 8-6 9-5-14-15c-8-8-21-14-28-14l-13 1 15 12 16 12-4 18c-4 20 4 47 14 47 3 0 4-11 2-25zm-51-97-5-13-1 19c-1 11 2 17 5 13 3-3 4-12 1-19zm933-283c0-8-4-15-10-15h-9l5 15c4 8 8 15 10 15s4-7 4-15zm-930-230 1-10-26-3-25-3v9c0 14 9 19 30 18l20-1v-10zM608 1390h29l-4-25-5-24 10-31 11-30h-7c-4 0-13 12-19 28-7 15-28 49-48 76-19 26-35 53-35 60 0 6 9-4 20-21l20-33h28zm595 18 5-33-9-9c-5-6-9-14-9-19v-8l9 6 10 5 10-17c5-10 12-15 16-12 3 4-2 14-11 23l-16 17 6 7 7 6 32-17c18-10 48-18 67-20l34-2 74-72 75-72 56-29c31-16 83-38 116-47l60-17 70-2 70-2 8 10 9 11-5-22-5-22 14 6c8 3 14 11 14 19 0 7 9 19 20 27s17 16 14 19-1 9 5 13l11 6 2-18c0-10 1-23 1-30l-1-11 12 4 12 5 2 29 2 30h-30v40h-10c-5 0-10-4-10-10 0-5-7-10-15-10s-15-4-15-10v-9l-15 5-15 6-1-18-1-19-5 15c-3 8-11 18-17 22l-12 7 2 28 1 28 46 13 47 13v27l25 6 26 7-6 9-6 10h12c6 0 17 7 23 16l12 15 27-12 27-12 7 7 7 7-10 7c-6 4-10 17-10 29v21l16-7c8-5 21-6 29-3l14 5-8-13-8-13 18-14c11-7 15-13 11-13h-8l12-15 12-15h-9c-5 0-14 5-21 12l-12 12v-16c0-9-6-19-12-22l-13-5 17-13c16-14 22-30 19-55l-1-13h-31l5-8c2-4-4-18-13-31l-18-24-12 8-12 7 18 14 18 13-21 1h-21l1-22c1-13-3-26-9-31l-10-7 20-16 20-16-21 4-21 5 1-16 1-16-21 3-22 3-5-28-5-27 16-13c24-18 31-16 42 10l9 22v-17c1-10 6-18 11-18 17 0 11-25-10-37l-19-13 2-32c1-18 6-36 11-39l8-6h-54l11 10c6 6 11 19 11 29v18h-21l6-10 6-10-15-6-15-6 6-14 5-14h-11c-6 0-11-4-11-10v-10l28-1 27-1-18-5-17-5 5-9 6-9h-8c-5 0-14 5-21 12l-12 12-7-8-8-8 15-8c8-5 24-16 35-24l20-15-22-1h-23v-44l-12 12c-7 7-18 12-25 12h-13v-32l-19 5-19 5-12-23-12-23 6-10 6-11-9-6-10-6 5-13 5-13-16-7-16-6 6 9c3 5 2 16-1 25l-6 17-12-10-12-10-27 24-26 25h-23c-13 0-35 6-50 14l-27 14-5-11-6-12-6 13c-3 6-12 12-19 12s-16 6-18 13l-5 12-2-20-1-20-21 25-21 25-4-13-5-13-19 17c-10 9-19 14-19 9 0-4-6-2-14 4l-14 12-7-11c-3-5-10-10-15-10h-8l5 19 5 18-17 7c-9 3-21 4-26 0l-9-5v18c0 10 7 27 15 37 8 11 15 30 15 42s3 29 6 38l6 16 52-42c28-23 57-48 64-57 17-20 15-11-5 30l-17 34-59 55c-66 62-71 65-109 74l-27 6 6-16 6-16-14-9-14-9h40l-11-8c-6-4-16-17-22-28l-11-22-35 2c-19 0-38 4-42 9-4 4-15 7-24 7h-17l-19-21c-10-12-36-33-58-46l-38-25-64-1-63-2 13-20c7-11 32-31 57-44l44-23-29 7c-63 14-116 73-116 130 0 14 16 67 36 118 19 51 44 128 55 172l19 80v104l53 10c28 5 61 12 72 14 11 3 25 5 31 6l12 1 5-32zm402-8 6-10h-10c-6 0-11 5-11 10 0 6 2 10 4 10 3 0 8-4 11-10zm-935-60v-30h-20v60h20v-30zm1115 20c-3-5-14-10-23-10h-17l15 10c8 5 19 10 23 10h8l-6-10zM720 1259v-10l-10 6c-5 3-10 11-10 16v10l10-6c6-3 10-11 10-16zm-18-65 27-54h-28l4-76c3-41 7-79 10-84s1-11-5-15l-9-6 6-32c19-102 76-241 130-320l33-48-1-55-2-55-11 4c-6 2-10 12-10 21 1 9-2 16-6 16s-32 53-63 118l-56 118-32 104-32 105-5 142c-6 192 3 212 50 117zm239-125c-34-75-52-135-45-154l5-13-10-7c-6-3-11-11-11-17v-10l17 6 17 7-6-7-7-7 11-21 11-21-15 13-16 13-7-12-8-12-9 16-9 16-15-6-15-6 5-13 5-14h-13c-8 0-17-6-20-12l-5-13v15c1 8 1 21 0 28l-1 13-10-6-10-6v32l-9-5-9-6 11 25 12 25 3-20c3-19 22-29 22-12 0 4 4 14 10 22l9 14 22-24 22-25-6 18-6 17 12 1c7 0-1 5-18 11-16 6-33 16-37 22l-8 11-11-15-11-15 6 18c6 20 2 21-27 6l-22-11 28 26 27 27 10-6 10-6-2 8c-2 7 143 160 150 157 1-1-11-30-27-65zm-30-263 9 5v-11c0-6-6-13-14-16l-15-6 6-14c7-20-4-17-27 6l-21 21-9-6-10-6v8c0 5 5 14 11 20l12 12 24-10c14-5 29-7 34-3zm103-16 27-10-15-22c-9-12-16-30-16-39v-17l-35-21-35-20v-30l-21-12-21-11 8 14c5 7 10 24 12 38 4 36 53 150 62 145 4-2 19-9 34-15zm996-4c0-3-4-8-10-11l-10-6v10c0 6 5 11 10 11 6 0 10-2 10-4zm-70-30c0-2-8-10-17-17l-18-14 14 18c13 16 21 21 21 13zm-60-128c0-5-4-8-10-8h-10v45l10-15c5-8 10-18 10-22zm-259-114c33-15 59-29 59-33 0-3 3-15 6-27l5-20-26-12-27-13-14 12-14 11-37-4-38-5-28 10-28 9 5 14 5 14-12 1c-7 1-18 1-26 0l-13-2 4 11c3 9 82 48 117 59 2 0 30-11 62-25zm-271-8v-14l-17 3c-10 2-20 4-23 4-7 2 23 21 33 21 4 0 7-6 7-14zM300 320c0-49 13-82 41-109l23-21-10-10c-9-9-48-18-197-45l-27-5-20 20-20 20v61l8-5c11-7 37 11 37 26v13l32 15 33 15-5 13-5 12 48 24c26 12 50 21 55 19 4-2 7-22 7-43zm1237-12c38-11 73-26 78-31l10-10-13 7-12 7-20-6-19-6 5-13 5-14-30-4-30-4-6 14-5 14-15-12-15-12v40l-16 6c-9 3-20 4-25 0l-9-5v39l13 5c22 9 35 7 104-15zm-355-65c-15-13-30-23-34-23-18 0-6 30 19 50l26 21 9-13 8-13-28-22zM135 25C48 10 4 7 12 15c7 8 116 23 163 23h40l-80-13zm153 8c-10-2-26-2-35 0l-18 5h70l-17-5zm127-3 20-9h-25c-14 0-43 4-65 8l-40 9h45c25 0 54-3 65-8zm78-17c-7-2-19-2-25 0l-13 5h50l-12-5zm588 2341 1-19 5 13c3 7 2 16-1 19-3 4-6-2-5-13zm359-276c-66-14-213-59-208-63 2-3 51 9 108 25 58 15 130 33 160 38l55 9-35 1c-19 0-55-4-80-10zm-364-9c-42-25-134-51-228-64-55-8-103-17-106-20-6-5 35-3 161 11 56 6 138 35 182 64 31 21 24 28-9 9zm94-79c-19-11-30-19-25-19 6 0 26 8 45 19s31 19 25 19c-5 0-26-8-45-19zm36-102c-11-6-51-19-90-29l-71-19-120 1-120 1-22-9-22-8h314l66 23c36 12 75 29 85 37 22 17 8 19-20 3zm-24-580 3-23 20-3 20-3-16 13-16 13 4 13 5 12h-23l3-22zm-42-16c0-4 9-13 20-20l20-12v8c0 10-22 32-32 32-4 0-8-3-8-8zm895-12-6-10h15c9 0 16 5 16 10 0 6-4 10-9 10-6 0-13-4-16-10zm-910-40c3-5 8-10 11-10 2 0 4 5 4 10 0 6-5 10-11 10h-10l6-10zm85 0c0-5 5-10 10-10 6 0 10 5 10 10 0 6-4 10-10 10-5 0-10-4-10-10zm-50-31v-10l10 6c6 3 10 8 10 11 0 2-4 4-10 4-5 0-10-5-10-11zm845 1-6-10h10c6 0 11 5 11 10 0 6-2 10-4 10-3 0-8-4-11-10zm-4-76 1-19 5 13c3 7 2 16-1 19-3 4-6-2-5-13zm-75-23c-4-5-4-16 0-24l5-14-15-6c-9-4-16-12-16-19v-13l10 15 10 15v-25h28l5 20 5 20h-20l5 20 5 20h-8c-5 0-11-4-14-9zm-76-36c0-8 4-15 10-15h9l-5 15c-4 8-8 15-10 15s-4-7-4-15zm-650-24c0-5 7-14 15-21l15-13-11-13c-17-21-2-17 20 5 21 21 18 33-7 24l-15-6 6 10 7 11-15 6-15 5v-8zm830-52v-10l10 6c6 3 10 8 10 11 0 2-4 4-10 4-5 0-10-5-10-11zm-105-9-6-10 15 6c18 7 21 14 7 14-6 0-13-4-16-10zm15-40-15-10h12c6 0 15 5 18 10 8 12 4 12-15 0zm-20-50c0-5 5-10 10-10 6 0 10 5 10 10 0 6-4 10-10 10-5 0-10-4-10-10zm-125-10c3-5 8-10 11-10 2 0 4 5 4 10 0 6-5 10-11 10h-10l6-10zm-105-30c0-5 5-10 10-10 6 0 10 5 10 10 0 6-4 10-10 10-5 0-10-4-10-10zM856 963c6-4 14-15 17-23l7-15-3 19-2 19-15 4-15 5 11-9z"/>
    </g>
    <g fill="#ad664e" transform="matrix(.1 0 0 -.1 0 300)">
      <path d="M0 2480v-520l93-2c50-1 116-2 145-1h53l-3-16-3-16-53-9-53-10 6-25c5-27 20-162 31-287l7-71-24-6c-13-4-63-7-111-7H0v-381l8 5c5 3 24 8 43 11s45 10 59 14c14 5 55 12 93 14l67 5 5-9c8-11 36-331 31-337-7-6-115-28-218-43L0 776V510h13c7 0 37 6 67 14 56 15 163 30 145 21-5-3-57-15-115-28L5 495l-3-24-4-24 26 7c14 3 37 9 51 12l25 6v-16c0-18-7-21-62-31l-38-6V224l20-22c12-12 27-22 35-22h14l15 28c8 15 15 23 16 19v-8l20 11 21 11-6 9-5 9 19 13c11 8 25 26 32 41l12 27 32 20c17 11 44 31 59 45s52 39 82 56l55 30 60 62 60 62-3-52-3-51 14 11c19 16 41 70 41 101v25l-19 11-19 10-81 1c-45 1-105 6-133 13l-53 11-9 27-10 27 15 27 14 27 17 5c10 2 18 8 18 13 0 4 16 13 35 20s35 16 35 19 14 7 31 8l32 3-13-16-12-15-9 6-9 5v-11c0-6-9-23-21-39l-21-28 4-29 3-29 21-10 22-11 43 5 44 4-39 12c-22 6-41 16-43 22l-4 10 50 22 50 21h89l27-32 27-32-4-61-4-61-21-21c-11-11-25-27-29-34-19-29-125-118-176-147-30-16-68-42-86-57l-32-27v-16c0-10 7-26 15-36l15-19 35 10 35 11v-36l29-12 29-12 5-18 5-18 23-5 24-4-30-2-30-2-29-45-29-46 14-9c24-15 35-10 76 35l40 44 6 31 6 30-50 43-51 43-19 36-18 37 22 15 22 14 20-8c11-4 34-8 51-8l32-1 11-14c6-8 10-20 9-27l-3-14-35-5-35-5 43-29 42-29v-33l43-22c23-11 53-25 66-30l23-8-33-28C626 67 560 20 550 20h-11l6-10 6-10h1085l22 16 22 15 1-8c1-4 1-11 0-16 0-4 8-7 19-7 25 0 25 5-1 31l-21 21 28 24c16 13 44 29 62 36l33 12-4 11-4 10 36 26 37 26 19-8c11-4 16-8 10-8l-10-1 13-9 14-8-35-22-35-21-5-20-5-20h-42l-1 13v12l-9-22c-5-13-14-23-20-23-5 0-10-4-10-9v-9l23 5 22 6-30-26-29-26 632-1h632v3000H0v-520zm469 108c-1-1 3-13 9-25l12-22 27-4 28-4-33-2-34-1-5 20-5 20-14-11-14-11v14c0 15 21 40 28 34 2-3 3-6 1-8zm61-2c0-2-7-7-16-10l-15-6 6 10c6 10 25 14 25 6zm1320-55 5-44 14 17 14 17 18-17c10-9 21-30 24-46l7-30-11-11-10-10-7 16-6 17-10-6-9-6 13-16 13-15-22 12-23 11-6-24c-3-14-12-27-20-30s-14-10-14-16v-10h40v-20l-24 10c-27 10-37 5-29-16l5-14h-11c-6 0-11-5-11-11v-11l14 12 15 12 23-4 23-3-48-25c-60-30-70-42-74-88-5-48-10-62-24-62h-11l6 16 6 15-11-6-10-7 6-18 6-18-16-5-15-6 7-17 6-17-13 8-13 8 7-26 6-26-10-6-10-6v26l-10-15-9-14 11-13c6-7 14-11 17-8 4 2 8-2 8-10v-14l-8 5c-4 2-10 0-14-6-3-5-12-10-18-10h-12l15 10 14 9-7 8-8 7-9-14c-6-8-10-19-10-25v-10l50 2 50 2-4-7-4-7 33-1h33l17-18 18-17 7 10 6 11 37-2 37-3 6-15c8-23 8-23-60-24l-64-2 4 7 4 7-42-4c-24-3-58-7-76-9l-34-4-31-24c-18-13-47-29-65-35s-40-18-48-27c-8-8-24-15-34-15h-18l-6-15-5-15h-20c-11 0-23-4-26-10-3-5-17-10-31-10h-24v-20h-58l-4-12-5-13-25 12-26 12-7-7c-4-4-11-8-16-8-5-1-13-2-19-3-5 0-10-9-10-18v-17l-16 22c-8 12-21 22-29 22h-14l-7 35-6 35-10-6-10-6 6-90 6-89-37 3-36 3-3 34-4 34 15-13c9-7 18-10 22-7 9 10-17 37-36 37h-17l-11 38-10 37-2-47c0-26-6-58-13-72l-11-26-13 18-13 17-1-14v-14l-7 6-6 7-14-12-13-11 6 17 6 16-43-2-44-1 33-4c63-8 28-29-55-32-17-1-44 4-60 10-15 6-45 12-66 14l-38 4-35-21c-19-11-37-18-39-16-3 2 0 20 5 39l10 34-6 205-7 205 16 77c19 90 55 183 97 248l30 47 28 12 27 11-30-25-29-24 21 5 22 6-12-38c-6-22-15-42-20-45l-9-6 11-8c7-4 18-4 26-1l14 5 4-12 4-12 52 28 53 27h29c15 0 51 9 79 20l51 20-7-12c-4-7-14-22-23-34-9-11 1-3 21 17 40 40 64 49 87 34l15-9 4 12c2 7 13 17 24 23l20 11-11-21c-19-35-12-36 18-1l28 35 17-14 16-13v21l28-9c15-4 45-10 68-13l41-5 24 19 24 19-19-6-18-7 11 19c6 10 16 26 23 35l13 16 66 12c36 6 93 22 126 36l61 24 33-5 34-5 40 10c22 5 49 9 60 8l20-2 5-44zm-350 19v-11l21 11 21 12 16-7 16-6-13-8c-7-5-42-8-77-8h-64v7c0 14 14 20 47 20h33v-10zm-1090-14v-14l-21 5-21 6 14 8c19 13 28 11 28-5zm985-5c-3-6-11-11-17-11h-10l12 15c14 17 26 13 15-4zm-1145-1c0-12-8-12-35 0l-20 9h28l27 1v-10zm58-7c-10-2-26-2-35 0l-18 5h70l-17-5zm167-13c10-11 24-20 31-20s15-4 19-10l6-9-13-21-13-20h-46l-4 13c-2 6-6 29-10 50l-6 37h9c5 0 17-9 27-20zm1462-27-5-18v60l5-12c2-7 2-21 0-30zm-573 14 19-14-24-21-23-22h-27c-34 0-59 9-59 21 0 5 8 9 18 9 9 0 28 9 42 20 30 23 31 24 54 7zm-1074-17v-20h-20v40h20v-20zm73-12c-2-5-8-8-14-8h-9v41l14-13c8-7 12-16 9-20zm56-15 12-23h-28v25c0 29 0 29 16-2zm-59-18c0-8-4-15-10-15-5 0-10 7-10 15s5 15 10 15c6 0 10-7 10-15zm-65-15-6-10h25c14 0 26-4 26-8v-9l-30 5-30 4v14c0 8 5 14 11 14h10l-6-10zm1585-35c0-8-2-15-4-15s-6 7-10 15l-5 15h9c6 0 10-7 10-15zm-50-135c0-5-4-10-10-10-5 0-10 5-10 10 0 6 5 10 10 10 6 0 10-4 10-10zm-62-95-5-25 8-6 9-5-14-15c-8-8-21-14-28-14l-13 1 15 12 16 12-4 18c-4 20 4 47 14 47 3 0 4-11 2-25zm-51-97-5-13-1 19c-1 11 2 17 5 13 3-3 4-12 1-19zM334 1853c3-16 8-60 11-99l7-71-63-7c-34-3-64-4-66-2-7 7-24 180-19 193l5 13h119l6-27zm2316-78c0-8-4-15-10-15h-9l5 15c4 8 8 15 10 15s4-7 4-15zm-2136-80 7-35-9-17c-5-10-7-23-5-29l4-12-43-4c-24-3-45-4-48-2-3 1-3 32-2 68l4 66h86l6-35zm1206-150 1-10-26-3-25-3v9c0 14 9 19 30 18l20-1v-10zm10-75c0-5-4-10-10-10-5 0-10 5-10 10 0 6 5 10 10 10 6 0 10-4 10-10zm-1122-80h29l-4-25-5-24 10-31 11-30h-7c-4 0-13 12-19 28-7 15-28 49-48 76-19 26-35 53-35 60 0 6 9-4 20-21l20-33h28zm595 18 5-33-9-9c-5-6-9-14-9-19v-8l9 6 10 5 10-17c5-10 12-15 16-12 3 4-2 14-11 23l-16 17 6 7 7 6 32-17c18-10 48-18 67-20l34-2 74-72 75-72 56-29c31-16 83-38 116-47l60-17 70-2 70-2 8 10 9 11-5-22-5-22 14 6c8 3 14 11 14 19 0 7 9 19 20 27s17 16 14 19-1 9 5 13l11 6 2-18c0-10 1-23 1-30l-1-11 12 4 12 5 2 29 2 30h-30v40h-10c-5 0-10-4-10-10 0-5-7-10-15-10s-15-4-15-10v-9l-15 5-15 6-1-18-1-19-5 15c-3 8-11 18-17 22l-12 7 2 28 1 28 46 13 47 13v27l25 6 26 7-6 9-6 10h12c6 0 17 7 23 16l12 15 27-12 27-12 7 7 7 7-10 7c-6 4-10 17-10 29v21l16-7c8-5 21-6 29-3l14 5-8-13-8-13 18-14c11-7 15-13 11-13h-8l12-15 12-15h-9c-5 0-14 5-21 12l-12 12v-16c0-9-6-19-12-22l-13-5 17-13c16-14 22-30 19-55l-1-13h-31l5-8c2-4-4-18-13-31l-18-24-12 8-12 7 18 14 18 13-21 1h-21l1-22c1-13-3-26-9-31l-10-7 20-16 20-16-21 4-21 5 1-16 1-16-21 3-22 3-5-28-5-27 16-13c24-18 31-16 42 10l9 22v-17c1-10 6-18 11-18 17 0 11-25-10-37l-19-13 2-32c1-18 6-36 11-39l8-6h-54l11 10c6 6 11 19 11 29v18h-21l6-10 6-10-15-6-15-6 6-14 5-14h-11c-6 0-11-4-11-10v-10l28-1 27-1-18-5-17-5 5-9 6-9h-8c-5 0-14 5-21 12l-12 12-7-8-8-8 15-8c8-5 24-16 35-24l20-15-22-1h-23v-44l-12 12c-7 7-18 12-25 12h-13v-32l-19 5-19 5-12-23-12-23 6-10 6-11-9-6-10-6 5-13 5-13-16-7-16-6 6 9c3 5 2 16-1 25l-6 17-12-10-12-10-27 24-26 25h-23c-13 0-35 6-50 14l-27 14-5-11-6-12-6 13c-3 6-12 12-19 12s-16 6-18 13l-5 12-2-20-1-20-21 25-21 25-4-13-5-13-19 17c-10 9-19 14-19 9 0-4-6-2-14 4l-14 12-7-11c-3-5-10-10-15-10h-8l5 19 5 18-17 7c-9 3-21 4-26 0l-9-5v18c0 10 7 27 15 37 8 11 15 30 15 42s3 29 6 38l6 16 52-42c28-23 57-48 64-57 17-20 15-11-5 30l-17 34-59 55c-66 62-71 65-109 74l-27 6 6-16 6-16-14-9-14-9h40l-11-8c-6-4-16-17-22-28l-11-22-35 2c-19 0-38 4-42 9-4 4-15 7-24 7h-17l-19-21c-10-12-36-33-58-46l-38-25-64-1-63-2 13-20c7-11 32-31 57-44l44-23-29 7c-63 14-116 73-116 130 0 14 16 67 36 118 19 51 44 128 55 172l19 80v104l53 10c28 5 61 12 72 14 11 3 25 5 31 6l12 1 5-32zm440-13c15-19 24-35 20-35-21 0-83 22-89 31l-6 10 18 14c26 19 25 20 57-20zm1317 13c0-7-7-22-15-32l-15-20v11c0 7 5 15 10 18 6 3 10 11 10 16v10l-10-6-10-6v10c0 6 7 11 15 11h15v-12zm-2290-68v-30h-20v60h20v-30zm1115 20c-3-5-14-10-23-10h-17l15 10c8 5 19 10 23 10h8l-6-10zm-995-83v-14h-30v27h30v-13zm-70-18v-10l-10 6c-5 3-10 11-10 16v10l10-6c6-3 10-11 10-16zm2230 1c0-5-5-10-11-10h-10l6 10c3 6 8 10 11 10 2 0 4-4 4-10zm-2248-66 27-54h-28l4-76c3-41 7-79 10-84s1-11-5-15l-9-6 6-32c19-102 76-241 130-320l33-48-1-55-2-55-11 4c-6 2-10 12-10 21 1 9-2 16-6 16s-32 53-63 118l-56 118-32 104-32 105-5 142c-6 192 3 212 50 117zm2278 28c0-5-7-9-15-9s-15 4-15 9c0 4 7 8 15 8s15-4 15-8zm-19-45c-1-12-15-9-19 4l-4 12 12-4c6-3 11-8 11-12zM941 1069c-34-75-52-135-45-154l5-13-10-7c-6-3-11-11-11-17v-10l17 6 17 7-6-7-7-7 11-21 11-21-15 13-16 13-7-12-8-12-9 16-9 16-15-6-15-6 5-13 5-14h-13c-8 0-17-6-20-12l-5-13v15c1 8 1 21 0 28l-1 13-10-6-10-6v32l-9-5-9-6 11 25 12 25 3-20c3-19 22-29 22-12 0 4 4 14 10 22l9 14 22-24 22-25-6 18-6 17 12 1c7 0-1 5-18 11-16 6-33 16-37 22l-8 11-11-15-11-15 6 18c6 20 2 21-27 6l-22-11 28 26 27 27 10-6 10-6-2 8c-2 7 143 160 150 157 1-1-11-30-27-65zm-554 39-5-13-1 19c-1 11 2 17 5 13 3-3 4-12 1-19zm2484-76c-5-10-17-25-26-32l-15-13-7 7-6 6 23 25c13 14 27 25 32 25h9l-10-18zm30 0c-5-10-18-25-28-33l-17-14 23 33c24 35 38 43 22 14zm-113-115c-19-18-37-39-39-46l-5-14-28 9-28 10 36 28 36 27-5 10-6 9h74l-35-33zm42-6c-5-11-19-23-30-26s-20-11-20-16-6-9-12-9h-13l40 35c47 40 49 41 35 16zm-5-61c-3-5-11-10-16-10h-10l6 10c3 6 11 10 16 10h10l-6-10zm-175-25c-7-8-20-15-28-15h-16l20 15c10 8 23 15 28 15h8l-12-15zm80 0c0-7-11-22-25-35l-25-23v23h-33l21 23 21 23h41v-11zM911 806l9 5v-11c0-6-6-13-14-16l-15-6 6-14c7-20-4-17-27 6l-21 21-9-6-10-6v8c0 5 5 14 11 20l12 12 24-10c14-5 29-7 34-3zm103-16 27-10-15-22c-9-12-16-30-16-39v-17l-35-21-35-20v-30l-21-12-21-11 8 14c5 7 10 24 12 38 4 36 53 150 62 145 4-2 19-9 34-15zm996-4c0-3-4-8-10-11l-10-6v10c0 6 5 11 10 11 6 0 10-2 10-4zm736-54-16-16v15c0 8 6 21 12 27l13 13 4-12c2-6-4-18-13-27zm-806 24c0-2-8-10-17-17l-18-14 14 18c13 16 21 21 21 13zm682-20 18-13-13-26c-14-30-30-39-52-31l-16 6 7 22 7 21-14-12c-8-6-22-25-32-42l-18-31h21l1 18 1 17 5-12 5-13h59l-13-22-12-23-4 18c-4 20-15 22-30 4-6-7-22-13-36-15l-24-2-29 15c-15 8-35 15-43 15l-15 1 30 24c17 14 34 25 39 25s17 7 27 16c25 22 81 53 99 53 8 0 23-6 32-13zm40-78-12-12v10c0 14 12 26 19 19 2-3-1-11-7-17zm-782-30c0-5-4-8-10-8h-10v45l10-15c5-8 10-18 10-22zm580-32c0-3-4-7-9-11l-10-5-6 10-6 10h15c9 0 16-2 16-4zm-57-31c23-9 22-20-5-44l-21-20 12-14 11-15-22-7-23-7 18-5c21-5 23-23 3-23h-15l-6 21-7 20-11-10c-7-5-23-11-36-13l-24-3-5-15-5-15 14 11 14 11 25-7 25-7-27-11c-15-6-45-28-67-48l-41-36v14c0 9 9 27 20 41 18 23 26 47 16 47-2 0-12 3-21 7l-17 6 6-21 7-20-22-15-21-15-17 6-16 6 14-17 14-17-27-25c-14-13-26-29-26-36 0-6-8-18-17-25l-18-13 25 5 25 5-19-15c-24-19-38-20-54-4l-12 12-17-16c-10-8-24-19-32-23l-14-8 6 17 7 18-13-5-13-5-25 13-24 13 28 11c15 6 30 17 33 25l6 14 39 16 39 16v14c0 18 15 28 44 30l21 2-2 11c-1 6 4 17 12 23l15 12v-22l20 12 20 13-4 12-5 12 28 21c16 11 32 20 35 20s22 17 41 39l35 39 28-3c15-1 35-6 45-10zm181-10c-4-8-11-15-16-15h-10l12 15c7 8 14 15 16 15s1-7-2-15zm-34-17v-10l-15 12c-8 7-15 14-15 16s7 1 15-2c8-4 15-11 15-16zm-1790-1v-13l-21-1-21-2 18 14c24 18 24 18 24 2zm861-23c33-15 59-29 59-33 0-3 3-15 6-27l5-20-26-12-27-13-14 12-14 11-37-4-38-5-28 10-28 9 5 14 5 14-12 1c-7 1-18 1-26 0l-13-2 4 11c3 9 82 48 117 59 2 0 30-11 62-25zm829 6c0-5-4-10-10-10-5 0-10 5-10 10 0 6 5 10 10 10 6 0 10-4 10-10zm-1100-14v-14l-17 3c-10 2-20 4-23 4-7 2 23 21 33 21 4 0 7-6 7-14zm-1140-6c0-5-5-10-11-10h-10l6 10c3 6 8 10 11 10 2 0 4-4 4-10zm556-37-7-16-14 19c-17 22-19 34-6 34 5 0 12-8 14-17l5-18 2 25 2 25 5-18c3-10 2-25-1-34zm1686 15-12-12-7 8-7 7 14 9c19 12 27 3 12-12zM684 433c-3-16-7-36-10-45l-5-17-35-11-36-12-11 11-11 11h16c9 0 24 7 32 16l16 15v48l23 4c12 2 23 5 24 6 1 0 0-11-3-26zm1666-68c-7-9-15-13-17-11-7 7 7 26 19 26h10l-12-15zm-35-4 5-10-9-5-9-6-6 15-5 15h9c5 0 11-4 15-9zM795 320l6-10h-10c-6 0-11 5-11 10 0 6 2 10 4 10 3 0 8-4 11-10zm742-12c38-11 73-26 78-31l10-10-13 7-12 7-20-6-19-6 5-13 5-14-30-4-30-4-6 14-5 14-15-12-15-12v40l-16 6c-9 3-20 4-25 0l-9-5v39l13 5c22 9 35 7 104-15zm645 0-12-12v10c0 14 12 26 19 19 2-3-1-11-7-17zm68 18c0-3-4-8-10-11l-10-6v10c0 6 5 11 10 11 6 0 10-2 10-4zM643 313c-7-2-21-2-30 0l-18 5h60l-12-5zm1563-28c-11-8-24-15-30-15-5 0-1 7 10 15 10 8 24 14 29 14 6 0 1-6-9-14zm-1024-42c-15-13-30-23-34-23-18 0-6 30 19 50l26 21 9-13 8-13-28-22zm773-23 6-10h-23l5-21 6-21-17 15c-9 8-24 17-32 21l-15 6 23-4 22-4v14c0 16 16 19 25 4zm96-20-23-20-10 6-9 6 18 14c10 7 25 13 33 13h15l-24-19zm84 10c-3-5-13-10-21-10h-15l6 10c3 6 13 10 21 10h15l-6-10zm-204-83c-13-13-26-3-16 12l6 11 11-6 10-6-11-11zm-1-32c-14-8-29-14-35-14-5 0 1 6 15 14s30 14 35 14c6 0-1-6-15-14zm-927-22c-7-2-21-2-30 0l-18 5h60l-12-5zm86-9c2-2-12-4-32-4h-37v20l33-7c17-3 34-7 36-9zm781-9c0-2-8-9-19-14l-18-10-19 14-19 14 38 1c20 0 37-2 37-5zm-789 2299 1-19 5 13c3 7 2 16-1 19-3 4-6-2-5-13zm359-276c-66-14-213-59-208-63 2-3 51 9 108 25 58 15 130 33 160 38l55 9-35 1c-19 0-55-4-80-10zm-364-9c-42-25-134-51-228-64-55-8-103-17-106-20-6-5 35-3 161 11 56 6 138 35 182 64 31 21 24 28-9 9zm94-79c-19-11-30-19-25-19 6 0 26 8 45 19s31 19 25 19c-5 0-26-8-45-19zm36-102c-11-6-51-19-90-29l-71-19-120 1-120 1-22-9-22-8h314l66 23c36 12 75 29 85 37 22 17 8 19-20 3zm-24-580 3-23 20-3 20-3-16 13-16 13 4 13 5 12h-23l3-22zm-42-16c0-4 9-13 20-20l20-12v8c0 10-22 32-32 32-4 0-8-3-8-8zm895-12-6-10h15c9 0 16 5 16 10 0 6-4 10-9 10-6 0-13-4-16-10zm-910-40c3-5 8-10 11-10 2 0 4 5 4 10 0 6-5 10-11 10h-10l6-10zm85 0c0-5 5-10 10-10 6 0 10 5 10 10 0 6-4 10-10 10-5 0-10-4-10-10zm-50-31v-10l10 6c6 3 10 8 10 11 0 2-4 4-10 4-5 0-10-5-10-11zm845 1-6-10h10c6 0 11 5 11 10 0 6-2 10-4 10-3 0-8-4-11-10zm-4-76 1-19 5 13c3 7 2 16-1 19-3 4-6-2-5-13zm-75-23c-4-5-4-16 0-24l5-14-15-6c-9-4-16-12-16-19v-13l10 15 10 15v-25h28l5 20 5 20h-20l5 20 5 20h-8c-5 0-11-4-14-9zm-76-36c0-8 4-15 10-15h9l-5 15c-4 8-8 15-10 15s-4-7-4-15zm-650-24c0-5 7-14 15-21l15-13-11-13c-17-21-2-17 20 5 21 21 18 33-7 24l-15-6 6 10 7 11-15 6-15 5v-8zm830-52v-10l10 6c6 3 10 8 10 11 0 2-4 4-10 4-5 0-10-5-10-11zm-105-9-6-10 15 6c18 7 21 14 7 14-6 0-13-4-16-10zm15-40-15-10h12c6 0 15 5 18 10 8 12 4 12-15 0zm-20-50c0-5 5-10 10-10 6 0 10 5 10 10 0 6-4 10-10 10-5 0-10-4-10-10zm-125-10c3-5 8-10 11-10 2 0 4 5 4 10 0 6-5 10-11 10h-10l6-10zm-105-30c0-5 5-10 10-10 6 0 10 5 10 10 0 6-4 10-10 10-5 0-10-4-10-10zM856 963c6-4 14-15 17-23l7-15-3 19-2 19-15 4-15 5 11-9zm1834-154v-10l10 6c6 3 10 8 10 11 0 2-4 4-10 4-5 0-10-5-10-11zm-435-329-6-10h10c6 0 11 5 11 10 0 6-2 10-4 10-3 0-8-4-11-10zm-250-180-6-10h10c5 0 13 5 16 10l6 10h-10c-5 0-13-4-16-10zm-5-31v-10l10 6c6 3 10 8 10 11 0 2-4 4-10 4-5 0-10-5-10-11zm35 1-6-10 15 6c18 7 21 14 7 14-6 0-13-4-16-10zM46 1089l7-12-27 7-26 6v-40l23 1c12 0 58 6 101 12l79 12 4 11 3 10-42-1c-24-1-58-5-77-9l-34-8 7 11 7 11H39l7-11zm69-59-40-7 35-1c19 0 53 3 75 7l40 9-35-1c-19 0-53-3-75-7zm-102-17c9-2 23-2 30 0l12 5H-5l18-5zm181-38c14-14 29-25 34-25h9l-5 25-4 25h-59l25-25zm-151 8-43-4v-19l48 7c26 3 58 10 72 14l25 7-30-1c-16 0-49-2-72-4zm-7-43-29-5-5-14-5-14 15 5c8 4 40 9 71 13l57 7v-30l-47-7c-72-10-93-16-93-27v-10l25 6 25 6v-25l8 12c9 15 90 41 115 37 9-1 19 2 23 7l5 9-18 1-18 1 12 4 12 5-6 15-6 15-56-3c-31-1-69-5-85-8zm230-27-7-18 12 12c7 7 10 15 7 18s-9-2-12-12zm-73-783c-28-12-29-18-1-41l21-19h72l-15-10-15-10h45v59l-22 15c-25 18-52 19-85 6zm10-107c-7-2-13-9-13-14V0h129l5 9 6 9-23 6c-26 7-87 7-104-1zM413 3c9-2 23-2 30 0l12 5h-60l18-5z"/>
    </g>
    <g fill="#555059" transform="matrix(.1 0 0 -.1 0 300)">
      <path d="M0 2480v-520l93-2c50-1 116-2 145-1h53l-3-16-3-16-53-9-53-10 6-25c5-27 20-162 31-287l7-71-24-6c-13-4-63-7-111-7H0v-381l8 5c5 3 24 8 43 11s45 10 59 14c14 5 55 12 93 14l67 5 5-9c8-11 36-331 31-337-7-6-115-28-218-43L0 776V510h13c7 0 37 6 67 14 56 15 163 30 145 21-5-3-57-15-115-28L5 495l-3-24-4-24 26 7c14 3 37 9 51 12l25 6v-16c0-18-7-21-62-31l-38-6V224l21-23 21-22 16 3 17 3v120l23 3 24 4-11-20-11-20 30 14c16 9 32 20 36 25 3 5 31 28 62 51 31 22 62 46 67 53 6 6 36 26 68 44l58 32 60 62 60 62-3-52-3-51 14 11c19 16 41 70 41 101v25l-19 11-19 10-81 1c-45 1-105 6-133 13l-53 11-9 27-10 27 15 27 14 27 17 5c10 2 18 8 18 13 0 4 16 13 35 20s35 16 35 19 14 7 31 8l32 3-13-16-12-15-9 6-9 5v-11c0-6-9-23-21-39l-21-28 4-29 3-29 21-10 22-11 43 5 44 4-39 12c-22 6-41 16-43 22l-4 10 50 22 50 21h89l27-32 27-32-4-61-4-61-21-21c-11-11-25-27-29-34-19-29-125-118-176-147-30-16-68-42-86-57l-32-27v-16c0-10 7-26 15-36l15-19 37 11 36 11 16-9 16-9-17-1c-27 0-21-16 11-30l29-12 5-18 5-18 23-5 24-4-30-2-30-2-29-45-29-46 14-9c24-15 35-10 76 35l40 44 6 31 6 30-50 43-51 43-19 36-18 37 22 15 22 14 25-9 25-10 54 6 54 5 8 13c5 7 9 23 9 34v22l23 4 23 4-1-40v-41l72-1 72-1 32-31 32-32-134-1c-208-2-229-3-229-11 0-3 16-16 35-28l35-22v-35l54-26c30-15 61-27 68-27l13-1-37-32c-20-17-61-50-92-72-30-22-56-43-56-47V0h1086l22 16 22 15 1-8c1-4 1-11 0-16 0-4 8-7 19-7 25 0 25 5-1 31l-21 21 28 24c16 13 44 29 62 36l33 12-4 11-4 10 36 26 37 26 19-8c11-4 16-8 10-8l-10-1 13-9 14-8-35-22-35-21-5-20-5-20h-40l-5 13-5 12-1-14c-1-8-8-22-17-32l-16-18 24 6 23 6-29-25-28-26 101-1 101-2 174 106c96 58 178 105 181 105s66 36 139 80 136 80 140 80c3 0 41 25 84 56l77 56-30-29c-17-15-46-40-65-55-48-38-23-35 30 3 24 17 49 32 57 33 7 1 14 6 14 12 1 16 21 34 39 34h18l5-12 4-13-27-27c-15-15-30-25-33-21-3 3-18-7-34-21-15-14-31-26-36-26h-8l6-10 7-11-12-14c-15-18-116-75-132-75-7 0-19-9-26-20l-12-20-73-35-72-36-45-48-45-48-32 9c-33 9-46 28-19 28h14l17 27 17 26-18-6-19-7 25 21c14 12 62 44 108 72 97 59 123 86 36 38-91-51-192-121-198-137-3-8-11-14-17-14-7 0-17-7-23-15s-38-30-70-50l-60-35h57l45 26 44 26 11-11 11-11h-16c-8 0-21-7-28-15l-12-15h862v1441l-36-7-36-7-7 11-7 11 15 136 15 135h56v1280l-1072-1-1073-1 32-11c17-7 35-15 39-19l7-8h-16c-9 0-17-4-17-8 0-11-40-29-57-26-7 1-22 2-34 3l-21 1-29 31-29 31-10-27-10-28-38 7c-20 3-69 11-108 16-38 5-90 15-115 21l-44 13-202 3-203 4v-521zm957 444c-3-3-12-4-19-1l-13 5 19 1c11 1 17-2 13-5zm-338-29c-1-11 4-35 9-53l11-33-19 6-18 6-7-11-7-11-14 12-14 11v86l11 4c6 2 20 4 30 4h18v-21zm106 5 15-12v-40l-26 17-26 17 6-34 7-33-30 34c-16 18-31 41-34 51l-5 18 39-2 39-3 15-13zm-219-6c-3-9-6-23-6-31v-15l-32 6c-18 3-36 10-42 16l-9 9 6 15 6 16h83l-6-16zm120-222c-8-7-25 8-37 31l-12 22 27-24c14-14 24-26 22-29zm-30-47c10-8 15-15 10-15h-8l12-15 13-15-16 6c-9 3-23 17-32 30l-15 24h8c4 0 17-7 28-15zm1255-20 8 6 7-26 6-25-6-25-7-25 21 12 20 13v17c0 29 15 21 34-18l17-37-6-27-6-27 14-12 15-12-8-33c-4-19-10-39-14-45l-7-11h19l-6-22-5-21 11 7 12 7v-16c0-9-5-26-11-37l-11-21 22 6 22 6-6-16-6-15 16 6 17 6-14-16-13-16 15 2c7 1 19 2 26 1l12-1-5-15-6-15h21l-5-14-6-14 22-4c11-2 21-7 22-13 2-15 21-31 43-39 25-8 81-56 78-67-2-4 11-17 27-29 31-22 60-71 60-101 0-10 5-21 10-24 6-3 10-11 10-16v-10l-11 7-11 6 17-26c10-14 14-26 10-26s-1-10 7-22c15-24 32-85 43-152 4-22 13-49 21-60l14-20v-29c0-15 7-42 17-60l16-32-18 15-18 15 7-30c5-16 9-51 11-77 2-25 6-51 9-57l7-11-17 7-17 6 7-11c3-6 9-33 11-59l5-48-15 19c-17 22-18 16-6-35l8-36-19 5-20 5 11-20 11-21-16-13-15-12 5-13 5-13-17 6-17 6 12-13 12-13-10-19-10-18h-41l12-15 12-15h-23l7-12 7-11-19 5c-10 3-28 9-39 12-11 4-5-1 13-10 17-10 32-22 32-27v-9l-15 6c-8 3-21 3-29 0l-14-5 6-22c2-12 10-28 16-36l11-14-25 8-25 8 12-15 13-15-40 1c-39 1-47-3-32-18 4-4 7-26 7-49l1-42-20-18-19-17-16 14c-9 7-26 19-39 25l-23 12 16-32 17-32-31 22-31 22 11-27 10-28-19 17c-10 9-22 17-26 17h-7l6-10 6-10h-31v-22l-15 6-15 5v-20l-17 2c-10 1-22 1-27 0l-9-1 18-20 18-20h-24l14-15 15-15-5-19-5-20-24 16-24 15-13-11-14-11-31 33-31 32-6 27-7 27-31 20-32 21 15 1h15l-39 15-39 14-6-6c-3-4 0-9 7-11 6-3 12-9 12-14v-8l-17 6c-10 3-28 15-40 25l-21 20-4-19-4-18-31 31-32 31-6-16-6-16-15 20-15 20-34-2-35-1v48l-20-3c-11-2-23-6-26-10-4-4-12-7-18-7h-11l14 9 15 9-14 17-13 16 25 27 26 27 7 32 7 33h-8c-4 0-12-7-18-15l-11-15-60-16c-33-8-79-16-102-17l-41-2 4-7c8-13-21-23-71-24-27 0-65-1-82-2l-33-2v-10c0-9 32-26 85-46l20-7-18-4c-9-3-34 1-55 7l-37 12-37 36-38 36-1 51v50l-10-25-10-25 10-36 11-36 26-27 27-26 38-12c44-13 47-18 20-42l-20-18 5-13 5-13-29-30c-17-17-32-29-34-26-3 2-17-20-31-48l-27-52v35l-10-6-9-6 3-63c1-34 0-71-4-80l-6-18-11 14c-13 15-91 170-126 250-30 67-61 171-81 270l-16 77v210l19 11c28 14 31 13 31-14v-24l25-30c26-32 32-52 14-52h-10l8-12c4-7 7-20 8-30v-16l39-31 38-31 21 11c11 6 39 29 63 51l42 39 21 42 21 42v-24c0-62 24 20 39 134l10 70-20 44-19 44 5 31 5 31-14 60-13 60-6-15c-3-8-8-28-12-43l-6-29-15 13-16 13-6-10-7-9-107-3-108-4v20l-22-6-21-5 7 11 6 11-37-6c-21-3-53-15-72-26l-34-21 8 30c4 16 11 49 15 73l7 44-9 126-9 126 6 83c11 147 47 258 117 360l30 43 24 11c33 15 39 6 20-31-23-44-19-50 9-16l24 30 1-22v-22l18 6 17 6-20-22c-11-13-28-27-39-33l-19-10-8 13-9 14v-37l28 7c15 3 44 20 65 37l38 30 32-6 32-5 40 10c22 6 52 12 67 13 15 0 33 7 40 14 6 6 20 12 30 12h18v-24l12 12c7 7 21 12 32 12 12 1 32 7 45 14l25 14 20-13c12-8 41-16 66-19l45-6 12 20 12 19-30-11-31-10-24 11-24 11v45l9-14 9-13 6 10c3 6 20 18 37 26l30 15 26-10c14-5 28-8 30-5 3 2-5 7-16 11-30 9-26 19 18 42l39 21 40-11 41-11 83 14c46 7 94 17 107 22l24 9-13-16-12-15h13c8 0 37 11 64 24l50 23 3-9c2-4 8-6 13-3zm-1290-15 24-20-24-20-23-20h-54l-12 12c-6 6-14 9-17 6-8-8 35-58 50-58 8 0 16-4 20-10l6-9-13-21-13-20h-22c-28 0-31 5-37 74-3 31-8 61-11 66-10 16 29 34 86 39 9 0 27-8 40-19zm1039 1v-9l-46-4c-25-2-51 0-57 4l-11 7 49 4c28 2 53 4 58 5 4 1 7-2 7-7zm-1185-78c3-21 8-47 10-58l4-20-50-23-51-23-21 3-22 3-10 54-11 54-34 19-35 19 70-4c39-2 81 0 95 4s30 7 37 8l12 1 6-37zm172 1c-3-3-12-4-19-1l-13 5 19 1c11 1 17-2 13-5zm-31-68c-31-42-33-50-5-36 37 20 31 3-7-20l-38-22 12 15 12 14-6 6-7 6 27 36c15 19 30 35 33 35s-6-15-21-34zm688-5c-3-3-9 0-15 6l-11 11 8 13 7 13 7-20c4-10 6-21 4-23zm-675-78v-28l-32-25-31-25 8 20c7 19 48 85 54 85 1 0 2-12 1-27zm-31-188c-3-3-9 2-12 12l-7 18 12-12c7-7 10-15 7-18zm-79-60 23-6-6-47c-4-26-9-59-12-74l-6-28h-32c-18 0-36 3-40 8-4 4-20 7-34 7h-27l-3 55-3 54 11 22 12 21 46-3c26-2 58-6 71-9zm-125-262c3-16 8-60 11-99l7-71-63-7c-34-3-64-4-66-2-7 7-24 180-19 193l5 13h119l6-27zm2463-3 32-19 18-58 17-58-1-120v-120l-21-78c-12-43-42-128-68-189l-47-110-43-19-43-20-25 5c-14 3-30 7-36 11l-10 6 5 10 6 9-15 22c-9 12-16 33-16 46s-5 32-10 43l-11 19h21l-15 37-16 38 11 3 11 4-16 24-15 23 2 64 1 63-8 15c-5 8-10 19-10 24-1 6-5 18-10 29l-8 18 18 52 18 51 73 81 73 81 33 16c43 22 66 21 105-3zM521 1691l12-39-7-25-6-25-47-4c-27-3-50-4-53-2-3 1-3 32-2 68l4 66h87l12-39zm2386-3-5-13-1 19c-1 11 2 17 5 13 3-3 4-12 1-19zm0-125-5-18v60l5-12c2-7 2-21 0-30zm-2378-72c-15-5-22 6-14 19l8 12 8-13 8-14-10-4zm2373-16c-2-14-6-25-8-25s-4 11-4 25v25h17l-5-25zm-2263-4 15-10-25-5c-13-3-37-7-52-8l-28-3 16-22 16-23h71l-6-15c-3-8-9-23-12-32l-6-18 16 19 16 20 40 3 40 4 17-10 18-10-40-16c-22-10-48-24-58-33l-18-16-9 14-10 15v-12c0-6 5-15 10-18l10-6-5-10c-10-16-23-10-29 14-3 13-20 41-37 63-17 21-39 56-50 76l-19 37 23 4c40 8 82 7 96-2zm2321-63c0-7-7-22-15-32l-15-20v11c0 7 5 15 10 18 6 3 10 11 10 16v10l-10-6-10-6v10c0 6 7 11 15 11h15v-12zm-74-55c-11-11-19 6-11 24l8 18 4-18c3-10 2-21-1-24zm-2096-72c0-4 12-21 28-36l27-28-59 7c-63 7-86 19-86 43v15l19-5 19-5 13 9c18 11 39 11 39 0zm2160-21c0-5-5-10-11-10h-10l6 10c3 6 8 10 11 10 2 0 4-4 4-10zm-1990-5c0-9-79-45-97-44h-18l50 24c52 24 65 28 65 20zm2020-33c0-5-7-9-15-9s-15 4-15 9c0 4 7 8 15 8s15-4 15-8zm-17-38c3-3 3-12 0-20l-5-14-9 6c-5 3-9 12-9 20 0 14 12 19 23 8zm-2576-76-5-13-1 19c-1 11 2 17 5 13 3-3 4-12 1-19zm2484-76c-5-10-17-25-26-32l-15-13-7 7-6 6 23 25c13 14 27 25 32 25h9l-10-18zm30 0c-5-10-18-25-28-33l-17-14 23 33c24 35 38 43 22 14zm-113-115c-19-18-37-39-39-46l-5-14-28 9-28 10 36 28 36 27-5 10-6 9h74l-35-33zm42-6c-5-11-19-23-30-26s-20-11-20-16-6-9-12-9h-13l40 35c47 40 49 41 35 16zm-5-61c-3-5-11-10-16-10h-10l6 10c3 6 11 10 16 10h10l-6-10zm-175-25c-7-8-20-15-28-15h-16l20 15c10 8 23 15 28 15h8l-12-15zm80 0c0-7-11-22-25-35l-25-23v23h-33l21 23 21 23h41v-11zm16-93-16-16v15c0 8 6 21 12 27l13 13 4-12c2-6-4-18-13-27zm-124 4 18-13-13-26c-14-30-30-39-52-31l-16 6 7 22 7 21-14-12c-8-6-22-25-32-42l-18-31h21l1 18 1 17 5-12 5-13h59l-13-22-12-23-4 18c-4 20-15 22-30 4-6-7-22-13-36-15l-24-2-29 15c-15 8-35 15-43 15l-15 1 30 24c17 14 34 25 39 25s17 7 27 16c25 22 81 53 99 53 8 0 23-6 32-13zm40-78-12-12v10c0 14 12 26 19 19 2-3-1-11-7-17zm-1377-58c-3-5-12-10-18-10h-12l15 10c19 12 23 12 15 0zm1175-4c0-3-4-7-9-11l-10-5-6 10-6 10h15c9 0 16-2 16-4zm-1222-20-17-13-33 5-33 5 20 8c11 4 34 8 50 8h30l-17-13zm1165-11c23-9 22-20-5-44l-21-20 12-14 11-15-22-7-23-7 18-5c21-5 23-23 3-23h-15l-6 21-7 21-11-11c-6-6-20-11-31-11h-20l10-9c5-5 18-11 29-13l20-5-27-11c-15-6-45-28-67-48l-41-36v14c0 9 9 27 21 42l21 27-12 14c-7 8-17 15-22 15h-9l6-19 6-19-22-15-21-15-17 6-16 6 14-17 14-17-25-23c-14-13-27-33-30-44l-6-22 12-4 11-4-27-13-27-13-16 13-15 13-18-15c-9-8-23-19-31-23l-14-8 6 17 7 18-13-5-13-5-25 13-24 13 28 11c15 6 30 17 33 25l6 14 39 16 39 16v14c0 18 15 28 44 30l21 2-2 11c-1 6 4 17 12 23l15 12v-22l20 12 20 13-4 12-5 12 28 21c16 11 32 20 35 20s22 17 41 39l35 39 28-3c15-1 35-6 45-10zM780 531v-16l-10 15-10 15v-21l-21-1-22-2 22 15 21 15-7 12-7 12 17-14c9-7 17-21 17-30zm1804 24c-4-8-11-15-16-15h-10l12 15c7 8 14 15 16 15s1-7-2-15zm-34-17v-10l-15 12c-8 7-15 14-15 16s7 1 15-2c8-4 15-11 15-16zm-909-17c25-12 56-31 69-43l22-21-12-7c-6-4-11-13-10-21s2-23 1-33l-1-20-16 20-16 19 6-17 5-18h-18l5-15 6-14-26-7-26-6 6-9 5-9-23-1-23-1 20-5c11-3 24-9 30-14l9-9h-43l5-14 6-15-22 6-22 6 4-19 3-18-30-7-30-7 18-1 17-1v-20c0-11-3-20-7-20-14 1-53 38-53 50v11l-17-3-18-3-3 23-3 22-10-5-9-6 11-22 12-21-12-4-11-4 7-11 7-12-17 13-16 14-11-7c-5-3-10-18-11-33l-1-27-8 29-9 29 12 11c7 6 19 19 26 29l14 17-17-6-16-6v23l-20-11-20-11v16c0 19 26 48 38 42 4-3 14 0 23 7l17 11v57l10 7c15 9 19 28 7 32-5 1-16 9-24 17l-14 13-6-9c-3-5-16-12-27-16l-22-7-6 17-6 16-37-6c-21-3-61-5-89-6h-52l-17-27-18-27 11-4c7-2 12-11 12-20 1-20 22-60 33-61 4-1 12-1 18-1h11l-6-16-6-15 11 7 11 7-7-24c-4-13-17-38-28-56l-21-31-12 15-11 16-11-7-12-7v42l-9-6-10-5-3 22-3 23-12-2c-6-1-19 9-29 23-11 14-27 35-36 46-10 12-18 29-18 40 0 16 7 27 57 80 8 9 35 24 60 32l44 15 29-5 29-6 44 17c57 21 129 30 237 29h85l46-23zm239-24c0-5-13 1-30 13-16 12-30 24-30 26 0 3 14-3 30-13 17-9 30-21 30-26zm570 23c0-5-4-10-10-10-5 0-10 5-10 10 0 6 5 10 10 10 6 0 10-4 10-10zM210 500c0-5-5-10-11-10h-10l6 10c3 6 8 10 11 10 2 0 4-4 4-10zm549-44-12-11 7 18c3 10 7 26 7 35l2 17 4-24 5-23-13-12zm-9 29c0-8-4-15-10-15-5 0-10 7-10 15s5 15 10 15c6 0 10-7 10-15zm1702-7-12-12-7 8-7 7 14 9c19 12 27 3 12-12zM905 419l-7-22 11 7 11 7v-10c0-5-4-12-9-15l-9-6-6 15c-3 8-3 22 0 30 9 23 16 18 9-6zm1445-54c-7-9-15-13-17-11-7 7 7 26 19 26h10l-12-15zm-35-4 5-10-9-5-9-6-6 15-5 15h9c5 0 11-4 15-9zm-133-53-12-12v10c0 14 12 26 19 19 2-3-1-11-7-17zm68 18c0-3-4-8-10-11l-10-6v10c0 6 5 11 10 11 6 0 10-2 10-4zm-44-41c-11-8-24-15-30-15-5 0-1 7 10 15 10 8 24 14 29 14 6 0 1-6-9-14zm-835-85c5 0 9-7 9-15 0-22-18-18-25 5-4 11-10 18-14 16l-7-5 5 32 5 32 9-32c6-18 14-33 18-33zm26 38-5-13-1 19c-1 11 2 17 5 13 3-3 4-12 1-19zm558-18 6-10h-23l5-21 6-21-17 15c-9 8-24 17-32 21l-15 6 23-4 22-4v14c0 16 16 19 25 4zm-685-9c0-5-7-12-16-15l-17-6 13 15c14 17 20 19 20 6zm781-11-23-20-10 6-9 6 18 14c10 7 25 13 33 13h15l-24-19zm84 10c-3-5-13-10-21-10h-15l6 10c3 6 13 10 21 10h15l-6-10zm-655-43v-8l-10 6c-5 3-10 14-10 23v17l10-15c5-8 10-19 10-23zm451-40c-13-13-26-3-16 12l6 11 11-6 10-6-11-11zm-1-32c-14-8-29-14-35-14-5 0 1 6 15 14s30 14 35 14c6 0-1-6-15-14zm-927-22c-7-2-21-2-30 0l-18 5h60l-12-5zm86-9c2-2-12-4-32-4h-37v20l33-7c17-3 34-7 36-9zm781-9c0-2-8-9-19-14l-18-10-19 14-19 14 38 1c20 0 37-2 37-5zm-412 2468c7-3 16-2 19 1 4 3-2 6-13 5l-19-1 13-5zm248-660-49-4-31-24c-17-13-44-28-59-34l-28-11 5-9 6-9-39-7-39-6-6-15-5-14h-52l5-9 6-9-57-17c-32-9-65-20-74-25l-15-8-27 5-27 5-6-16-6-17-14 18-14 18-6-22-6-23-27 5c-14 2-31 11-37 20-19 26-22 17-10-35l12-51 27-34c15-18 40-42 57-52l30-17v-41l48-30 47-30 35-1c49-1 110-15 110-25v-8l-37-3-38-3 40-44c22-24 64-59 93-78l52-34 48 16c26 9 54 22 62 29l15 13 52 7c100 13 141 35 236 129l48 48-7 22c-4 12-12 25-18 29l-11 8h12c7 0 30 23 51 51l39 52-4 18-5 17-29 12c-16 7-29 16-29 21s-7 9-15 9-15-4-15-9v-8l-25 5-25 4v23l-9-13c-11-18-20-17-38 5l-14 18-5-12c-3-7-10-13-15-13h-10l6 10 6 10h-9c-5 0-11-3-15-6l-6-7 15-28 15-29h-272l21 22c11 12 20 25 20 30 0 4 12 11 27 14l26 7-19 14-19 14 20 12c19 11 114 53 145 63l15 6-19-16c-25-20-18-20 27-1 20 8 44 15 54 15l18-1-25-15-25-15 22 6c12 3 38 3 58-1l36-6-13-16-13-15 23 7c27 9 92 15 92 9 0-2-10-8-22-13l-23-9h23l23-1-6-10-6-10h18c11 0 28 7 39 16l19 15-25-7-25-6 20 16 20 15-19 1h-18l5 14 5 14-38 6-39 6 6 18 6 17-8-7-8-8-41 24c-23 13-58 26-79 30l-39 7 6-9 6-10-64 2-64 1 10 13c6 6 9 11 7 10s-26-3-53-5zm120-289 22-6 11-24 11-24h-15c-8 0-15 4-15 8v9l-57-8c-32-4-91-10-130-13l-73-5v8c0 15 35 39 70 49 39 11 144 15 176 6zm-96-104c0-5-4-10-10-10-5 0-10 5-10 10 0 6 5 10 10 10 6 0 10-4 10-10zm123-37-6-16 11 7 12 7v-9c0-5-18-22-40-37l-41-28 13-8 12-8 7 11 7 11 16-6c9-4 16-11 16-16 0-10-83-44-137-55l-31-7-6 10-6 10 9 5 10 6 6-10 6-10 10 5c5 4 9 12 9 20v13h-152l-11 11-11 11 24 1 25 1-27 10-28 10v12c0 19 23 43 48 49l22 5 15-28 15-28 30-16 30-15 46 16 46 16 20 33c11 19 24 34 29 34h8l-6-17zm57-48c0-8-4-15-10-15-5 0-10 7-10 15s5 15 10 15c6 0 10-7 10-15zm-30-15c0-5-2-10-4-10-3 0-8 5-11 10l-6 10h10c6 0 11-4 11-10zm-125-30-20-8 18-7c19-8 31-2 26 13l-4 9-20-7zm-819-295c-9-26-7-32 5-12 6 10 9 21 6 23-2 3-7-2-11-11zm214-161v-15l10 6c6 3 10 10 10 16 0 5-4 9-10 9-5 0-10-7-10-16zm982-148c7-8 15-12 17-11 5 6-10 25-20 25h-10l13-14zm-42-1c0-1 6-8 14-14l14-12 6 9 6 10-20 5c-11 3-20 4-20 2zm675 1056c-26-11-122-113-163-173l-32-47v-61h-20l29-52c16-29 32-63 36-76l6-22-21-30-21-30-6-35-6-35h41l22 35c12 19 31 40 41 46 11 5 24 22 30 37l10 26-17 38c-9 21-21 38-26 38-4 0-8 5-8 10 0 6 7 10 15 10 22 0 75 41 75 57 0 8 7 30 15 50l15 37 11-11 10-10 6-58 6-57 11 18 10 19 3 131 4 131-26 11c-14 7-27 12-28 11-1 0-11-4-22-8zm-75-982v-10l10 6c6 3 10 8 10 11 0 2-4 4-10 4-5 0-10-5-10-11zm-685-509-6-10h10c5 0 13 5 16 10l6 10h-10c-5 0-13-4-16-10zm-5-31v-10l10 6c6 3 10 8 10 11 0 2-4 4-10 4-5 0-10-5-10-11zM46 1089l7-12-27 7-26 6v-40l23 1c12 0 58 6 101 12l79 12 4 11 3 10-42-1c-24-1-58-5-77-9l-34-8 7 11 7 11H39l7-11zm69-59-40-7 35-1c19 0 53 3 75 7l40 9-35-1c-19 0-53-3-75-7zm-102-17c9-2 23-2 30 0l12 5H-5l18-5zm181-38c14-14 29-25 34-25h9l-5 25-4 25h-59l25-25zm-151 8-43-4v-19l48 7c26 3 58 10 72 14l25 7-30-1c-16 0-49-2-72-4zm-7-43-29-5-5-14-5-14 15 5c8 4 40 9 71 13l57 7v-30l-47-7c-72-10-93-16-93-27v-10l25 6 25 6v-25l8 12c9 15 90 41 115 37 9-1 19 2 23 7l5 9-18 1-18 1 12 4 12 5-6 15-6 15-56-3c-31-1-69-5-85-8zm230-27-7-18 12 12c7 7 10 15 7 18s-9-2-12-12zm399-553-6-10h10c6 0 11 5 11 10 0 6-2 10-4 10-3 0-8-4-11-10zm1629-205-19-14 11-1c6 0 17 7 24 15 16 19 9 19-16 0zM193 130c-28-12-29-18-1-41l21-19h72l-15-10-15-10h45v59l-22 15c-25 18-52 19-85 6zm10-107c-7-2-13-9-13-14V0h129l5 9 6 9-23 6c-26 7-87 7-104-1zM413 3c9-2 23-2 30 0l12 5h-60l18-5z"/>
    </g>
    <g fill="#69362c" transform="matrix(.1 0 0 -.1 0 300)">
      <path d="M305 2960v-40l13 17 12 17v-64l27-11 26-10 27 26c14 14 31 25 37 25s13 6 15 12l4 12 35 2c19 1 29-1 22-3l-12-4 5-14 6-14 24 9 24 10 30-6 30-6v24l15-12 15-13-6 16-6 16-56 5c-32 4-76 11-100 16l-43 10-10-6-10-6-20 18-19 17-34-10-34-11-9 9-9 9 1-40zm593 23c23-8 42-19 42-25v-9l-17 3-18 4-25-23c-25-23-50-30-50-14 0 5-16 12-35 15l-36 7-9 25-10 25-10-6c-5-3-10-17-10-30v-24l-27-4-28-4 31-7 31-8 15-34c18-40 16-41-23-13l-29 20v-11c0-6 5-20 10-31l11-19h-13c-14 0-58 59-58 78 0 7-5 12-11 12h-11l7-27c4-16 9-49 9-75l2-47 19-21 18-20h-12c-6 0-27 6-46 14l-34 14-20 39-20 38 1-55 1-55 10-13c5-7 8-15 5-18-3-2-13 10-22 28l-17 33 5-50 6-50 31-42 30-43-6-10c-3-5-23-15-44-21l-38-11-21 11-22 11 6-14 6-15 34-13c19-6 34-15 34-20 0-4-14-27-30-52l-31-45-35-13-35-12 18-7c10-4 32-5 50-2l31 5-15-52-15-51 13-31 13-31 11 34 12 34 7-38 7-37-17-85-17-84 11-191 11-192-20-52c-10-28-23-57-28-65l-8-13 15-32c9-17 40-64 69-105 55-77 63-98 39-107l-14-5 5-19 5-19 14 6 14 5v-80c0-96 15-216 37-292 21-71 90-245 114-284 11-17 19-41 19-53v-23h20v-84l15 20 14 19 1-35c0-19 5-42 10-50l11-15-6 30-5 30 10-24c12-28 72-121 77-121 2 0 1 5-2 10-3 6-4 10 0 10 3 0 18-20 34-45l29-46 6 13c3 7 2 0-1-16l-6-29 12 7 11 7v-36l9 13 8 14 7-17 6-16 10 6 9 6 15-36 15-35 16-6 15-6V41c0-9-5-22-12-29l-12-12h15c8 0 20 5 27 12l12 12V0h31l-7 13-7 12 14-12 13-13h414l33 33c50 50 252 207 267 207h13l-5 9-6 9 77 58c42 33 95 75 117 94 23 20 83 69 133 109l93 72 10-6 10-6-2 9c-3 10 94 107 151 151 19 14 49 40 66 56 18 17 41 37 52 47l21 16 36-8 36-8v18h-63l110 113c115 118 136 148 152 216l9 41-9 6c-5 3-8 13-7 22l3 17-22-1c-13 0-23 3-23 8 0 4-7 8-15 8h-15v15c0 19 9 19 62-4l44-19 27-32 27-32v47l-49 32-48 31 3 29c2 15 6 60 9 98 4 39 11 99 16 135s9 91 9 123v57l30 6c31 7 39 19 18 27l-13 5 13 1 12 1v110l-27 2c-28 2-108 5-195 7l-48 2v189h19l-3 43-2 42-18 34-18 35-3 40c-4 50-15 91-48 174-14 34-21 60-16 57l9-6v34l18-15c9-8 27-18 39-21l23-5 6 9c3 5 19 9 35 9h30l4-12c4-11 11-259 14-471l1-48 10 6 10 6v31c0 40 5 34 14-15l7-39-8 5c-5 3-15 2-23-4l-15-9h65v219c0 120 3 232 6 250l6 31 9-6 9-5-5-10-6-9h33l-5-13-5-14h25l-5 26c-3 14-11 33-19 42l-14 16 23 7c13 3 28 6 33 6h10l3-198 3-197 10-10 9-9v430l-11 11-11 11 11 6 11 7v409h-98l-5-13c-3-8-2-29 3-48 4-19 8-28 9-20s4 12 7 8c3-3 3-19-1-35l-6-30-25-5-25-4 5 13 5 13-9 6-10 6v-51h10c6 0 14-10 19-22l9-23-12-6c-6-4-23-9-39-13l-27-6 4 37c3 21 8 73 11 116l6 77h-60l-3-117-3-118h-67l1 118 2 117h-301l3-22 2-23h-30l3 23 3 22-763-1-763-1 43-15zm59-59c-3-3-12-4-19-1l-13 5 19 1c11 1 17-2 13-5zm-128-91c2-2 0-3-6-3s-21 9-34 21l-24 20 30-17c17-10 32-19 34-21zm1996-115 23 3 6-9 5-9-107-13c-59-7-115-17-124-21l-17-9-15 22c-9 12-16 25-16 29 0 7 97 28 150 32l35 2 18-15 19-15 23 3zm30 21-30-8-9 9-10 10 40-1 39-1-30-9zm-2232-69c-6-6-53 47-53 61 0 5 13-5 29-23s27-35 24-38zm-19-61c-2-4 6-15 18-23l22-16h-11c-14 0-83 69-83 82 0 5 13-1 30-13 16-12 27-26 24-30zm31 31c10-11 16-20 13-20s-13 9-23 20-16 20-13 20 13-9 23-20zm1230-79v-48l18 11 17 11v17c0 29 15 21 34-18l17-37-6-27-6-27 14-12 15-12-8-33c-4-19-10-39-14-45l-7-11h19l-6-22-5-21 11 7 12 7v-16c0-9-5-26-11-37l-11-21 28 7 27 7-14-17-14-18 19 7 19 7-14-16-13-16 15 2c7 1 19 2 26 1l12-1-5-15-6-15h21l-5-14-6-14 22-4c11-2 21-7 22-13 2-15 21-31 43-39 25-7 81-55 78-66-1-5 13-20 32-35 19-14 35-31 35-37 0-7 10-23 23-36 12-14 16-22 10-18l-13 7v-15c0-8 5-18 10-21 6-3 10-11 10-16v-10l-11 7-11 6 17-26c10-14 14-26 10-26s-1-10 7-22c15-24 32-85 43-152 4-22 13-49 21-60l14-20v-29c0-15 7-42 17-60l16-32-18 15-18 15 7-30c5-16 9-51 11-77 2-25 6-51 9-57l7-11-15 6-15 6 8-30c5-16 16-42 24-58l16-29 1 14v15l31-35c17-19 35-42 41-53l10-18-25 18c-14 11-31 29-38 41-6 12-15 21-20 20-4-1-15 7-23 18l-16 20 6-20 6-20-16 19c-18 22-19 17-7-35l8-36-19 5-20 5 11-20 11-21-16-13-15-12 5-13 5-13-17 6-17 6 12-13 12-13-10-19-10-18h-41l12-15 12-15h-23l7-12 7-11-19 5c-10 3-28 9-39 12-11 4-5-1 13-10 17-10 32-22 32-27v-9l-15 6c-8 3-21 3-29 0l-14-5 6-22c2-12 10-28 16-36l11-14-25 8-25 8 12-15 13-15-40 1c-39 1-47-3-32-18 4-4 7-26 7-49l1-42-20-18-19-17-16 14c-9 7-26 19-39 25l-23 12 16-32 17-32-31 22-31 22 10-25 10-26h-9c-5 0-11 7-15 15-3 8-10 15-16 15h-11l6-10 6-10h-31v-22l-15 6-15 5v-20l-17 2c-10 1-22 1-27 0l-9-1 18-20 18-20h-27l17-12 17-13-6-22-6-22-24 16-24 15-13-11-14-11-31 33-31 32-6 27-7 27-31 20-32 21 15 1h15l-39 15c-39 14-63 11-37-5l13-9-3-11-4-11-39 32-39 32 7-28 7-28-40 40-40 39-6-16-6-16-15 20-15 20-34-2-35-1v48l-20-3c-11-2-23-6-26-10-4-4-12-7-18-7h-11l14 9 15 9-14 17-13 16 25 27 26 27 7 32 7 33h-8c-4 0-12-7-18-15l-11-15-60-16c-33-8-79-16-102-17l-41-2 4-7c8-13-21-23-71-24-27 0-65-1-82-2l-33-2v-10c0-9 32-26 85-46l20-7-18-4c-9-3-34 1-55 7l-37 12-37 36-38 36-1 51v50l-10-25-10-25 10-36 11-36 26-27 27-26 38-12c44-13 47-18 20-42l-20-18 5-13 5-13-30-31c-17-18-31-28-31-24 0 13-42-60-51-87l-7-25-1 23-1 23-10-6-9-6 3-63c1-34 0-71-4-80l-6-18-11 14c-13 15-91 170-126 250-30 67-61 171-81 270l-16 77v210l19 11c28 14 31 13 31-14v-24l25-30c26-32 32-52 14-52h-10l8-12c4-7 7-20 8-30v-16l39-31 38-31 21 11c11 6 39 29 63 51l42 39 21 42 21 42v-24c0-62 24 20 39 134l10 70-20 44-19 44 5 31 5 31-14 60-13 60-6-15c-3-8-8-28-12-43l-6-29-15 13-16 13-6-10-7-9-107-3-108-4v20l-22-6-21-5 7 11 6 11-37-6c-21-3-53-15-72-26l-34-21 8 30c4 16 11 49 15 73l7 44-9 126-9 126 6 83c11 147 47 258 117 360l30 43 24 11c33 15 39 6 20-31-24-45-19-49 13-11l29 35-5-28-5-27 18 7 19 6-20-22c-11-13-28-27-39-33l-19-10-8 13-9 14v-37l28 7c15 3 44 20 65 37l38 30 32-6 32-5 40 10c22 6 52 12 67 13 15 0 33 7 40 14 6 6 20 12 30 12h18v-24l12 12c7 7 21 12 32 12 12 1 32 7 45 14l25 14 20-13c12-8 41-16 66-19l45-6 12 20 12 19-30-11-31-10-24 11-24 11v45l9-14 9-13 6 10c3 6 20 18 37 26l30 15 26-10c14-5 28-8 30-5 3 2-5 7-16 11-30 9-26 19 18 42l39 21 40-11 41-11 83 13c46 8 99 20 118 27l35 14-25-21-25-21 30 7c17 3 48 17 70 30l40 24 10-10 10-10v-48zm-265 30v-9l-46-4c-25-2-51 0-57 4l-11 7 49 4c28 2 53 4 58 5 4 1 7-2 7-7zm1010-62c15-28 5-23-15 7l-17 26 11-6c6-4 16-16 21-27zm-2027-16c-7-2-19-2-25 0l-13 5h50l-12-5zm392-11c-3-3-11 0-18 7l-12 12 18-7c10-3 15-9 12-12zm-78-8c-3-3-12-4-19-1l-13 5 19 1c11 1 17-2 13-5zm196-1c-7-2-19-2-25 0l-13 5h50l-12-5zm-532-42c-36-46-39-56-10-41 38 21 31 3-8-20-21-12-33-16-26-10 6 7 9 18 7 24l-4 11 31 38c41 49 49 48 10-2zm2083-8c16-48 15-69-2-36-12 22-25 83-19 83 3 0 12-21 21-47zm-1400-2c-3-3-9 0-15 6l-11 11 8 13 7 13 7-20c4-10 6-21 4-23zm-131 2c-7-2-19-2-25 0l-13 5h50l-12-5zm-273-7c0-3-4-8-10-11l-10-6v10c0 6 5 11 10 11 6 0 10-2 10-4zm-305-130-35-38 11 29c5 15 20 43 32 60l22 33 3-23 3-23-36-38zm2153-51c-3-3-9 2-12 12l-7 18 12-12c7-7 10-15 7-18zm159-67-5-13v50l5-12c2-7 2-19 0-25zm-150-125-5-18v70l5-17c2-10 2-26 0-35zm107-214 26-20 17-57 17-57-1-120v-120l-21-78c-12-43-42-128-68-189l-47-110-43-19-43-20-25 5c-14 3-30 7-36 11l-10 6 5 10 6 9-15 22c-9 12-16 33-16 46s-5 32-10 43l-11 19h21l-15 37-16 38 11 3 11 4-16 24-15 23 2 64 1 63-8 15c-5 8-10 19-10 24-1 6-5 18-10 29l-8 18 18 52c11 28 18 60 17 71l-1 20 8-13 7-12 66 73 67 74 33 16c18 9 45 17 59 17h26l27-21zm-439-11 8 7-7-13-8-13-14 12c-8 6-14 14-14 16 0 3 6 0 13-6l14-11 8 8zm515 8c0-3-4-8-10-11l-10-6v10c0 6 5 11 10 11 6 0 10-2 10-4zm95-24c-3-3-11 0-18 7l-12 12 18-7c10-3 15-9 12-12zm-88-54-5-13-1 19c-1 11 2 17 5 13 3-3 4-12 1-19zm32-67c-1-20-5-63-9-96l-7-60-2 35c0 19-4 65-8 103l-6 68 17-7 16-6-1-37zm-509-86v-10l-10 15c-5 8-10 20-10 25v10l10-15c5-8 10-19 10-25zm18-90c-3-3-9 2-12 12l-7 18 12-12c7-7 10-15 7-18zm475-37c-2-29-6-66-7-83-2-16-4-38-5-47l-1-18h-32l6 28c3 15 11 60 18 100 7 39 16 72 19 72h7l-5-52zm-2374 3c-15-5-22 6-14 19l8 12 8-13 8-14-10-4zm110-20 15-10-25-5c-13-3-37-7-52-8l-28-3 16-22 16-23h71l-6-15c-3-8-9-23-12-32l-6-18 16 19 16 20 40 3 40 4 17-10 18-10-40-16c-22-10-48-24-58-33l-18-16-9 14-10 15v-12c0-6 5-15 10-18l10-6-5-10c-10-16-23-10-29 14-3 13-20 41-37 63-17 21-39 56-50 76l-19 37 23 4c40 8 82 7 96-2zm1824-75 6 7 11-27c17-47 11-50-20-11-32 40-38 54-17 36l14-11 6 6zm-1573-70c0-3-4-8-10-11l-10-6v10c0 6 5 11 10 11 6 0 10-2 10-4zm1601-48 10-18h-9c-12 0-42 45-42 62l1 13 15-20c9-11 20-28 25-37zm-1693-3c7-14 19-28 27-31 8-4 15-11 15-16v-11l-57 7c-58 7-83 19-83 40v12l28 11c15 6 34 11 43 12l16 1 11-25zm162-20c0-9-79-45-97-44h-18l50 24c50 25 65 29 65 20zm1527-35c-2-36-3-36-18-9l-11 21 11-6 11-7v15c0 9 2 16 5 16 2 0 3-13 2-30zm-9-165c-3-3-9 2-12 12l-7 18 12-12c7-7 10-15 7-18zM1077 678l-5-13v50l5-12c2-7 2-19 0-25zm449-5c20-27 16-38-6-18-20 18-26 35-14 35 4 0 13-8 20-17zm-241-73c-3-5-12-10-18-10h-12l15 10c19 12 23 12 15 0zm-47-24-17-13-33 5-33 5 20 8c11 4 34 8 50 8h30l-17-13zm387-46c17-8 42-22 57-33l28-18 9 6 10 5-2-20c-1-11-5-20-10-20-4 0-7-8-6-17 1-10 1-27 0-37l-1-20-16 20-16 19 6-17 5-18h-16l4-24 5-24-28 6-27 5 7-12 7-11-23-1-23-1 20-5c11-3 24-9 30-14l9-9h-43l5-14 6-15-22 6-22 6 4-19 3-18-30-7-30-7 18-1 17-1v-20c0-11-3-20-7-20-14 1-53 38-53 50v11l-17-3-18-3-3 23-3 22-10-5-9-6 11-22 12-21-12-4-11-4 7-11 7-12-17 13-16 14-11-7c-5-3-10-18-11-33l-1-27-8 29-9 29 12 11c7 6 20 20 27 30l15 20-14-8-13-9-7 12-7 11-22-16-23-16 7-21c4-12 11-25 17-28l10-7-6-16c-7-19-29-22-26-3 1 6 1 18 0 25l-1 13-8-5-8-5 4 33 4 33 23 27 24 28 8-5c5-3 15 0 24 7l17 11v54l16 16 16 17-6 9-5 9-10-5-9-6v9c0 6-7 13-16 16l-16 6 5-14 6-14-20 5-19 5v-21l-15 5c-8 3-13 11-12 17l2 12-35-1c-19-1-60-2-91-3l-57-1-17-27-18-27 11-4c7-2 12-11 12-20 1-20 22-60 33-61 4-1 12-1 18-1h11l-6-16-6-15 11 7 11 7-7-24c-4-13-17-38-28-56l-21-31-12 15-11 16-11-7-12-7v42l-9-6-10-5-3 22-3 23-12-2c-6-1-19 9-29 23-11 14-27 35-36 46-10 12-18 29-18 40 0 16 7 27 57 80 8 9 35 24 60 32l44 15 29-5 29-6 44 17c57 22 129 30 237 29l85-1 30-13zm255-33c0-9-56 28-66 44-3 6 10 0 30-13s36-27 36-31zm-975-78-7-22 11 7 11 7v-8c0-4-4-14-9-21l-8-14-6 22c-3 12-3 28 0 36 8 22 15 16 8-7zm492-181-5-13-1 19c-1 11 2 17 5 13 3-3 4-12 1-19zm-77-13c-7-9-15-13-18-10-3 2 1 11 8 20s15 13 18 10c3-2-1-11-8-20zm-50-13c0-4-9-13-21-20l-20-13 11 21c10 19 30 28 30 12zm214-62c-7-6-24 22-23 40v15l14-25c7-14 11-27 9-30zm-214 36c0-2-8-10-17-17l-18-14 14 18c13 16 21 21 21 13zm-77-21c-3-9-8-14-10-11-3 3-2 9 2 15 9 16 15 13 8-4zm-76-57-5-13v50l5-12c2-7 2-19 0-25zm341 2415c7-3 16-2 19 1 4 3-2 6-13 5l-19-1 13-5zm248-660-49-4-31-24c-17-13-44-29-61-35l-29-11 13-8 13-8-45-7-45-7-6-14-5-15h-52l5-9 6-9-57-17c-32-9-65-21-74-25l-17-9-22 6-23 6-12-17-13-17-6 16-6 16-11-6-11-7 6-27 7-26-9 13c-5 7-19 15-33 17-13 3-29 12-35 20-19 26-22 17-10-35l12-51 27-34c15-18 40-42 57-52l30-17v-41l48-30 47-30 35-1c49-1 110-15 110-25v-8l-37-3-38-3 40-44c22-24 64-59 93-78l52-34 48 16c26 9 54 22 62 29l15 13 52 7c100 13 141 35 236 129l48 48-7 22c-4 12-12 25-18 29l-11 8h12c7 0 30 23 51 51l39 52-4 18-5 17-29 12c-16 7-29 16-29 21s-7 9-15 9-15-4-15-9v-8l-25 5-25 4v23l-9-13c-11-18-20-17-38 5l-14 18-5-12c-3-7-10-13-15-13h-10l6 10 6 10h-9c-5 0-11-3-15-6l-6-7 15-28 15-29h-272l21 22c11 12 20 25 20 30 0 4 12 11 27 14l26 7-19 14-19 14 20 12c19 11 114 53 145 63l15 6-19-16c-25-20-18-20 27-1 20 8 44 15 54 15l18-1-25-15-25-15 22 6c12 3 38 3 58-1l36-6-13-16-13-15 23 7c27 9 92 15 92 9 0-2-10-8-22-13l-23-9h23l23-1-6-10-6-10h18c11 0 28 7 39 16l19 15-25-7-25-6 20 16 20 15-19 1h-18l5 14 6 15-57 6c-71 8-87 13-44 14l32 1v23l-7-6-6-7-41 24c-23 13-58 26-79 30l-39 7 6-10 7-10-53 2-53 2-20-9-20-9 19 21c11 12 17 21 15 20s-26-3-53-5zm120-289 22-6 11-24 11-24h-15c-8 0-15 4-15 8v9l-57-8c-32-4-91-10-130-13l-73-5v8c0 15 35 39 70 49 39 11 144 15 176 6zm-96-104c0-5-4-10-10-10-5 0-10 5-10 10 0 6 5 10 10 10 6 0 10-4 10-10zm129-9 13-8-11-7c-6-4-11-12-11-17v-10l10 6 10 6v-9c0-5-18-22-40-37l-41-28 13-8 12-8 7 11 7 11 16-6c9-4 16-11 16-16 0-10-83-44-137-55l-31-7-6 10-6 10 9 5 10 6 6-10 6-10 10 5c5 4 9 12 9 20v13h-152l-11 11-11 11h24l25 1-31 13-31 14-6 23-6 24 7 6c4 4 24 12 44 17l36 10 13-30 12-29 32-25 32-24 43 15c57 20 68 31 76 71 7 36 11 39 33 25zm51-76c0-8-4-15-10-15-5 0-10 7-10 15s5 15 10 15c6 0 10-7 10-15zm-30-15c0-5-2-10-4-10-3 0-8 5-11 10l-6 10h10c6 0 11-4 11-10zm-125-30-20-8 18-7c19-8 31-2 26 13l-4 9-20-7zm-819-295c-9-26-7-32 5-12 6 10 9 21 6 23-2 3-7-2-11-11zm214-161v-15l10 6c6 3 10 10 10 16 0 5-4 9-10 9-5 0-10-7-10-16zm982-148c7-8 15-12 17-11 5 6-10 25-20 25h-10l13-14zm-42-1c0-1 6-8 14-14l14-12 6 9 6 10-20 5c-11 3-20 4-20 2zm675 1056c-26-11-122-113-163-173l-32-47v-61h-20l29-52c16-29 32-63 36-76l6-22-21-30-21-30-6-35-6-35h41l22 35c12 19 31 40 41 46 11 5 24 22 30 37l10 26-17 38c-9 21-21 38-26 38-4 0-8 5-8 10 0 6 7 10 15 10 22 0 75 41 75 57 0 8 7 30 15 50l15 37 11-11 10-10 6-58 6-57 11 18 10 19 3 131 4 131-26 11c-14 7-27 12-28 11-1 0-11-4-22-8zm93 1182c7-3 16-2 19 1 4 3-2 6-13 5l-19-1 13-5zm-2558-83v-24l12 12 12 12-12 12-12 12v-24zM35 2539c22-4 51-8 65-7h25l-40 9c-22 4-51 8-65 7H-5l40-9zm110-16c11-2 36-9 56-14l36-9 11-25c7-14 11-38 11-53l-1-27-11 42-10 43-16 5c-30 9-176 35-198 35H0v-370h14c8 0 18-5 22-11l7-11-22 7-21 6v-91h181l4-12c3-7 6-24 8-37 2-14 9-27 15-29l12-4v63l15-15c8-8 15-21 15-29v-15l16-6c9-3 20-3 26 0l10 7-5 33-6 34h21l-5 48c-3 26-10 99-16 162-10 114-28 237-36 251-6 8-88 29-112 28l-18-1 20-5zm27-433 5-31-14 14-14 13 7 17c9 24 11 21 16-13zm2753 290c1-11 4-23 8-26l7-7v11c0 5 3 17 6 26l6 16h-29l2-20zm55-269c0-6 4-13 10-16l10-6-6 15c-7 18-14 21-14 7zM312 2000v-25l5 13c2 6 2 18 0 25l-5 12v-25zm2603 0-6-10h52l-6 10c-3 6-12 10-20 10s-17-4-20-10zm63-7c7-3 16-2 19 1 4 3-2 6-13 5l-19-1 13-5zm-2638-23-25-7 28-8c15-4 27-10 28-14 0-3 2-13 3-21 2-8 6-49 10-90 4-42 12-83 17-90l10-15-7 48c-4 27-9 83-13 125l-6 75-10 3c-5 1-21-1-35-6zm-44-338-19-4 7-53 6-54-27-3-28-3 2-80c1-44 7-117 14-162l11-83h28l1-12c0-7 7-69 14-138l14-125-4 108-3 107h31l-6 40-5 40 14 14 14 15v29c0 16-3 43-6 61l-6 31-9-6-9-5v10c0 5 5 13 11 17l11 6-6 32c-3 17-8 71-10 119l-5 87h34c19 0 36 3 38 8l5 7h-46c-26 0-55-2-66-3zm24-452c0-11-2-20-4-20s-6 9-9 20l-5 20h9c5 0 9-9 9-20zM23 1493c15-2 37-2 50 0l22 4H-5l28-4zm317-290c0-14 19-38 25-32 8 8-5 39-16 39-5 0-9-3-9-7zM0 1179v-19h43c23 0 49 5 57 10l15 10H98c-10 0-18 3-18 8 0 4-18 8-40 8l-40 2v-19zm2985-31c-9-62-7-109 6-122l9-10v92c0 51-2 92-4 92s-7-24-11-52zm-2629-12 5-13-18-7-17-7 14-9c24-16 30-12 30 20v30h-19l5-14zm2538-63c3-3 16-11 28-17l22-11 8-39c5-22 12-44 17-50 4-6 9-30 10-53l2-42-16-30c-8-16-20-33-26-37l-11-7 7 22 6 21h-28l5-29 4-29-33-48-32-48-8 20-8 19v-29l-1-28-16 13-17 14 7-21 6-20-27-25c-16-13-22-17-15-9 6 8 12 18 12 23v8l-9-6-10-5-6 10-6 10-25-27c-26-28-29-39-14-48l10-6v14c0 8 7 17 14 20l15 6-6-17c-3-9-42-53-87-96l-80-79-13 32-13 32-10-6-9-5 14-27 14-27-11-13-11-14-14 5-14 6 6-10 6-9-43-27c-24-15-67-42-95-61-29-18-54-33-57-33-2 0-9 14-16 30l-13 30-13-17c-7-10-14-21-14-25v-7l17 6 16 6-8-13-8-13 11 7 12 7v-8c0-5-9-14-20-21l-20-12-12 25c-6 14-15 25-20 25h-8l11-19 12-18-6-17c-4-9-15-19-24-23-10-4-35-17-56-30-22-14-41-22-44-20-2 3-15-6-29-20l-25-25-15 6-15 6 6-10 6-9-23-12-22-12-15 20c-9 10-24 22-33 25l-17 7 6-15c3-7 9-14 15-14 5 0 16-6 24-14l14-14-63-36-62-35 28-1h28l174 105c96 58 177 105 180 105s66 36 139 80 136 80 140 80c3 0 41 25 84 56l77 56-30-29c-17-15-46-40-65-55-48-38-23-35 30 3 24 17 48 32 54 33s11 4 11 7c0 14 29 39 45 39h18l5-12 4-13-27-27c-15-15-30-25-33-21-3 3-18-7-34-21-15-14-31-26-36-26h-8l6-10 7-11-12-14c-15-18-116-75-132-75-7 0-19-9-26-20l-12-20-73-35-72-36-45-48-45-48-32 9c-33 9-46 28-19 28h14l17 27 17 26-18-6-19-7 25 21c14 12 62 44 108 72 97 59 123 86 36 38-91-51-192-121-198-137-3-8-11-14-17-14-7 0-17-7-23-15s-38-30-70-50l-60-35h57l45 26 44 26 11-11 11-11h-16c-8 0-21-7-28-15l-12-15h862v905l-18 65c-9 36-22 73-28 84l-11 18-27 3c-15 2-25 1-22-2zm-2534-12c0-6 4-13 10-16l10-6-6 15c-7 18-14 21-14 7zm43-36v-40l4 23c2 12 2 30 0 40l-5 17 1-40zm-37-18c3-10 9-15 12-12s0 11-7 18l-12 12 7-18zm2506-69-11-11 18-26c10-14 21-35 26-46l7-20 5 14 5 13 9-13 9-14v36l-17 6c-19 7-33 22-33 36v8l10-6 10-6v9c0 5-6 14-13 21l-13 11-12-12zM412 915v-30l5 18c2 9 2 23 0 30l-5 12v-30zm2338-125v-10h41l-6 10c-3 6-13 10-21 10s-14-4-14-10zm-63-40-5-20h19c21 0 22 1 13 24-8 22-21 20-27-4zm110-20c3-11 9-23 14-26l9-5v43l15-12 15-13-6 17-6 16h-46l5-20zm-81-26c-7-19-8-17 22-33l22-12v11c0 5-4 10-10 10-5 0-10 6-10 14s-4 17-9 20l-9 6-6-16zM326 593c4-43 8-89 8-102l1-25-40-9c-22-4-85-19-140-32S43 399 27 396l-27-6v-30l28 6c15 3 85 22 157 41l130 36 22 16 22 16 2 30 2 30 4-22 4-23h12c7 0 20 7 30 14l17 13v38l10-15 10-15v30c0 17-3 48-7 70l-7 40-7-35-6-35-2 33-1 32h-50l-1-17v-18l-16 23c-8 12-20 22-25 22h-10l8-77zm2364 67c0-5 5-10 10-10 6 0 10 5 10 10 0 6-4 10-10 10-5 0-10-4-10-10zm-280-150c0-5 5-10 11-10h10l-6 10c-3 6-8 10-11 10-2 0-4-4-4-10zm120 1c0-6 5-13 10-16l10-6v15c0 9-4 16-10 16-5 0-10-4-10-9zm-50-35c0-9 5-16 10-16 6 0 10 4 10 9 0 6-4 13-10 16l-10 6v-15zm20-48c0-10 3-18 8-18 4 0 12 8 18 18l11 18h-37v-18zM125 376 5 344l-3-32-3-32 13 2 13 3 5-45 5-45 13 1c6 1 16 2 20 3l8 1-4 60-4 60h26c29 0 30-3 16-30l-10-19 22 13c27 15 144 126 131 125-4 0-62-15-128-33zM57 228l-5-13-1 19c-1 11 2 17 5 13 3-3 4-12 1-19zm2213 132c0-5 5-10 11-10h10l-6 10c-3 6-8 10-11 10-2 0-4-4-4-10zM391 316l-11-13 7-6 6-7h-33v-29l29 10c17 6 35 17 41 24l11 14-19 10-20 11-11-14zm359-130v-25l30 1 30 1v18l10-6 10-6v20l-37-6-38-6 14 16 13 17h-32v-24zm1544-31-19-14 11-1c6 0 17 7 24 15 16 19 9 19-16 0zm-268-10c4-8 10-15 15-15h8l-5 15c-4 8-10 15-15 15h-8l5-15zM832 40l5-15 46-5 46-6-10 12-9 11-25-5-25-4-17 13-16 14 5-15zm-114-7c6-2 18-2 25 0l12 5h-50l13-5zm72-1c0-5 7-9 15-9s15 4 15 9c0 4-7 8-15 8s-15-4-15-8zM233 13c9-2 23-2 30 0l12 5h-60l18-5zm715 0c7-3 16-2 19 1 4 3-2 6-13 5l-19-1 13-5zm42-3c15-10 58-14 48-5-3 3-18 8-34 11l-29 4 15-10z"/>
    </g>
    <g fill="#2f1e1e" transform="matrix(.1 0 0 -.1 0 300)">
      <path d="M903 2985c39-13 54-23 46-28-2-1-25-12-52-25-53-25-75-27-110-11l-25 11-13 27-13 26-4-33-3-34 15-39 16-39h-11c-6 0-19 5-30 10-22 12-24 7-9-21l11-19h-14c-15 0-48 33-65 65l-11 20 4-63 3-62 16-25 16-25h-10c-6 0-26 6-45 14l-34 14-16 31c-8 17-18 31-21 31-7 0 2-99 10-107 3-3 6-11 6-16s-9 1-21 14l-21 24 6-25c3-14 6-30 6-37 0-6 15-32 34-56l35-45-17-15c-9-8-24-17-32-21l-15-6 25 4c14 2 35 7 47 11l22 7-6-23c-4-13-18-33-32-46l-26-24 25 6 25 6-21-13-22-13 13-12 13-12 23 16 24 15-20-19c-11-10-27-27-35-38l-15-19 14 9 14 8-16-24-17-23v-60l54 75 54 75 25 13 25 13 12-7 11-7-6-15-5-16 13 11 13 12 14-13 14-12-13 17-13 17 7 12 8 11-22-7-21-6v10c0 10 37 24 56 20 5-1 19-1 32 0l22 1v9c0 5-9 13-21 16-11 4-36 20-55 37l-34 30 1 17 1 16 5-12c2-7 11-13 19-13h15l-6-9-5-9 26-21c15-11 41-25 59-30l33-9 26 5 26 5-36 29c-20 16-33 29-29 29 5 0 16-7 26-16 19-17 28-18 124-10l70 6-25-9c-14-5-45-10-70-10l-45-2 18-10 18-10 72-1c40-1 83 2 96 7l24 7-7-10c-3-6-24-13-46-17s-42-11-46-16l-5-9-32 1-32 1 30 7 30 7-85 1-85 1 50-13c28-8 76-15 108-16 59-2 65-6 45-29-7-8-1-5 13 8 14 12 29 22 34 22 4 0 14 8 22 18 8 9 12 11 8 5l-6-13h9c5 0 17 11 26 25s21 25 26 25h9l-5-17-6-18 22 25 22 25-6-18-6-18 30 21 30 21 12-7 11-7-6 17-7 17 10-6 10-6 10 25 10 26h45l-25-20-25-20 20 6c11 4 25 10 30 14 14 11 119 22 223 24l87 2 14 9 14 8-6-16-6-17h7c4 0 26 11 49 24l43 25 7-12c4-7 10-32 14-57l6-45 14 33c7 17 17 32 21 32 13 0 37-56 44-101 4-24 10-51 15-59l8-15 1 30 2 30 5-15c3-8 20-31 37-50l31-35-22 19c-13 11-23 15-23 10 1-18 27-43 68-64 24-13 41-25 38-27-2-3-15 1-28 8l-23 12 20-24 20-23-28 18c-16 9-33 16-40 13l-11-3 44-27 45-27-35 6-35 7 10-10c6-6 28-22 49-36l40-26-18-7-17-7 30-18c27-17 71-52 107-86 16-17 27-17 18-1l-8 12 35-21c18-12 33-25 31-28s4-18 14-33l17-27-24 20c-13 12-33 27-44 35l-20 14 34-37c19-20 31-37 25-37-5 0 5-9 22-19 18-11 35-24 39-30 3-6-11-1-32 11-39 23-49 31-93 68l-25 22 18-6 18-6-23 28c-13 16-27 29-33 29-5 0-27 8-48 17l-39 17 7-10c3-6 26-22 51-37l44-26-6-9-5-9 36-21 37-22-12-7-12-7 11-7 11-7v20l34-20c19-11 37-26 40-34l5-15h-8c-5 0-20 10-35 21-48 38-39 13 15-41l52-52 8 13 8 13 12-26 11-26 13 5 13 5 12-21c6-12 8-21 4-21-3 0-1-7 6-15l12-15h-9c-5 0-18 7-29 15l-19 14 13 1h13l-6 10c-4 6-10 8-15 5s-16 2-24 11l-16 15-1-18-1-18-5 13c-2 6-10 12-16 12s-18 7-27 15l-17 15 2-20c1-10 8-27 17-37s23-34 32-53l17-35-27 30-26 30 21-35c11-19 30-53 40-75l20-40-3-20-3-20 14-29 15-29 8 13 8 13 8-24c4-13 7-37 6-54-1-16 3-37 8-45l10-15v106l-16 25-17 24 7 52c4 29 11 55 16 58s11 24 12 47c2 23 6 39 9 37 4-2 9 3 12 10l6 15-12 5-12 4 34 1 35 1-12-12c-7-7-12-16-12-20s17 11 38 34c20 23 55 54 76 70l39 28h78l24-16 24-16 17-43 16-44 7-78 6-78-8-74c-10-98-30-175-80-299l-41-104-40-45-41-44-42-6-43-6-33 38c-19 21-42 40-51 41l-17 2 6-29 7-30-12-15-13-14-12 17-13 18 5-28c3-15 9-27 14-27h9v-52l-16 6-16 6 7-46 7-46-10 6-10 6-12-31-13-30-11 4-11 4-3 34-2 34 16-25 15-25-5 24c-3 14-2 44 1 67l6 42 13-5 14-5-10 28c-6 16-16 32-23 36l-11 7-12-10-12-9 14-38c7-20 13-44 13-52v-15l-14 25-14 25-1-14v-15l-14 20-15 19-7-18-7-18 13-25 14-24 7 12 8 13-3-58-3-58-11-11-12-12v21l-22-2c-30-2-32-17-9-67l19-43-6-9-6-10-4 12-4 13-14-12-14-11-10 26c-11 31-20 35-13 6l5-20h-10c-5 0-12 9-15 20s-10 20-16 20h-11l9-23 9-24-8-13-8-13 5-15 6-14-21 11c-26 14-35 14-27 1l6-10-16 6-16 7 7-27 6-26h-9c-5 0-13 4-19 10l-10 10 4-38 3-37-15 18-14 18-4-15-3-16-29 27-30 27 8-19c4-11 8-24 9-30l2-10-12 3-13 2v-25l-10 15-10 15v-36l-16 15c-19 20-34 20-34 2 0-8-6-16-12-19l-13-4-22 26-21 26-7-6-6-6 27-32c27-32 27-54 0-32l-14 12-7-10-6-11-25 27-24 26v-21c0-11 4-23 10-27l9-6-6-15-5-15-14 12-14 11 6 37 5 36-19 37-20 38 12-7c6-3 2 3-8 15-26 30-30 28-22-10 7-37 6-36-23 22l-23 45 19-17 18-17 14 8 13 8-28 22c-31 24-44 27-44 7v-14l-20 5c-10 3-25 11-31 19-15 19-29 18-29-2v-16l-16 6-17 6 13-15c7-8 20-15 29-16l16-1-12-4c-7-3-22 0-34 7l-23 12-4-12-4-11-20 22-20 23 6-17 5-18h-12c-7 0-18 5-25 12l-12 12v-10c0-5 12-22 25-37l25-28 10 6 10 6v-9c0-17-28-22-118-23-48-1-98-4-112-9l-25-7 115 5c63 2 133 8 155 11l40 7 43-14 42-14v-38l12 2 12 3 6-35c4-19 10-48 14-65l7-30-17 20-17 20 6-17 6-18-19-10-20-11-6-23-6-24-18 5-19 5 8-30c5-17 7-33 4-36s2-8 11-12c9-3 16-11 16-17v-10l-23 21c-13 12-27 22-31 22h-8l6-15 5-15h-9c-5 0-12 5-15 10-11 17-22 11-20-12l2-22 11-4c7-2 12-8 12-14v-9l-20 6-20 6 10-25 10-26-26 6-25 6 13-28 13-28 3 17c5 23 17 22 19-2l2-19-29 2-29 2 12-15 12-14-22 12c-13 6-23 16-23 22v10l-9-5-9-6-12 15c-7 8-16 13-20 10l-8-5-12 30c-7 16-18 35-26 41l-14 11v-50l25-30c14-17 25-36 25-43V75l-9 14-9 13-4-12-4-13-16 16c-8 9-18 14-21 11s-11 8-18 25l-13 30-8-5-8-5v42l-9-5-9-6 5-38 5-37-17-20-16-20 4 28c5 35 0 35-15 0l-11-28-7 33c-4 18-11 36-14 40l-7 6-8-13-8-13-8 19c-5 10-7 27-6 38l3 20-29-30c-16-16-35-31-42-33l-13-3 4 18 4 18-34 33-33 32 7 13 7 12-7-7-8-6-28 31c-16 18-36 39-44 48l-15 15-3 35c-2 18-7 37-12 41l-10 7 12 25 11 25-9 6-8 5-5-12-5-13-1 12c-1 7 9 19 22 27l22 15 60 7c33 4 87 7 120 6l60-2 30 15 30 15-25-6c-14-3-78-7-143-8l-118-3-5 9-5 8h41v22l15-6 15-5v19h20c11 0 20 4 20 9s9 11 19 14l19 5 9-9 8-8 45 11c25 6 46 12 48 13 2 2-6 19-18 39-24 44-25 53-3 35l16-14-13 25-13 25 22-19 21-19v-38l-11 6-10 7 13-21 13-21h16c9 0 22 7 30 16l12 15 9-16 9-15 12 7c6 4 20 8 29 8l18 2v-14c0-19 17-16 29 5l10 17 1-19v-20l10 10 11 11-7 16c-3 9-12 17-19 17h-14l-6 21-7 22-8-13c-12-19-37-21-51-4l-11 14-11-7-10-6 6 50 6 51-18 16-18 16h-73l-12-20c-7-11-18-20-24-20s-19-9-29-20l-18-19-18 10-19 10v29h-61l-15-35c-8-19-13-38-12-42 5-16-27-79-51-101l-26-22-12 4-11 5-17-18-16-19-2-40-2-40 12 5 13 5 2-48c0-27 2-61 3-77 1-15-1-27-5-27-6 0-42 41-75 85l-14 20-1-35v-35l8 12 8 13 13-35c7-19 16-35 20-35s13-12 20-26c6-15 15-24 18-20 7 7 50-49 59-77l6-20 9 14 10 14-7-29-7-29 12 7 11 7v-36l9 13 8 14 7-17 6-16 10 6 9 6 15-36 15-35 16-6 15-6V41c0-9-5-22-12-29l-12-12h15c8 0 20 5 26 11l11 11 6-11c4-6 12-11 17-11h10l-26 37-25 38 1 25 1 25 10-29 10-28 10 13 10 14-5-22-5-23 20-25 19-25h407l33 33c50 50 252 207 267 207h13l-6 9-5 9 102 81c57 44 139 110 183 146 44 37 99 80 123 97 24 16 63 49 86 71 23 23 80 74 125 112 46 39 140 126 210 195l128 125 17 35c9 19 21 52 25 73l9 37-9 6c-5 3-8 13-7 22l3 17-22-1c-13 0-23 3-23 8 0 4-7 8-15 8h-15v15c0 19 9 19 62-4l44-19 27-32 27-32v42l-47 35c-27 19-60 37-75 40-16 4-28 8-28 9s8 27 17 57l17 54 1 160v160l-19 35c-10 19-30 47-44 63l-26 27h-63l-2 115-2 115h17l-2 38-2 37-22 48-21 47 7 11 6 11-12 42c-7 22-25 72-40 110l-28 69 12 13 11 12 16-14c17-15 59-19 59-6v8l37-4c20-3 43-10 50-17l12-13-7-8c-4-5 0-3 9 4l16 12v-13c1-6 4-69 9-139l7-127 9 5 8 5v97c0 53 3 107 6 119l6 23 9-6 9-5-5-10-6-9h33l-5-13-5-14h25l-5 26c-3 14-11 33-19 42l-14 16 23 7c13 3 28 6 34 6h10l2-162c2-89 5-164 7-167 3-2 5 54 6 125 0 71 2 145 3 164l3 35-13 21-13 22 14 18 14 19 1 193v192h-98l-5-13c-3-8-2-29 3-48 4-19 8-28 9-20s4 12 7 8c3-3 3-19-1-35l-6-30-25-5-25-4 5 13 5 13-9 6-10 6v-51h10c6 0 14-10 19-22l9-23-12-6c-6-4-23-9-39-13l-27-6 4 37c3 21 8 73 11 116l6 77h-60l-3-117-3-118h-67l1 118 2 117h-165l22-16 23-16-5-13c-3-8 1-28 7-45l12-32-18-13-18-13 13-5 13-5-15-11c-20-14-35-8-35 14v18l-15 5c-28 9-33 40-15 105l7 27h-112l3-22 2-23h-30l3 23 3 22h-467l-467-1 11-11c22-22 12-27-19-11l-30 15-219 5-219 4 6-22 6-23-30 22-31 22h-29l-28-1 38-14zm377-5c-8-5-19-10-25-10h-10l15 10c8 5 20 10 25 10h10l-15-10zm220-11v-10l-10 6c-5 3-10 11-10 16v10l10-6c6-3 10-11 10-16zm-500-39c0-5-7-10-16-10h-15l5-9 6-9-32-6-32-6 10-9c5-5 23-12 39-15 17-2-3-3-43 0l-72 4-40 14-40 14v-8c0-15 39-41 89-59l52-18-32-7c-17-3-46-5-63-5l-31 2 22 4 22 4-39 38-40 38v31l39-15 40-15 35 6 36 7v10c0 13 38 28 73 28l27 1v-10zm1440-30v-9l-15 5c-8 4-15 8-15 10s7 4 15 4 15-4 15-10zM679 2770l22-45-26 28-25 28v21c0 26 2 24 29-32zm1972 17-11-11v15c0 9 3 19 7 23l8 7 3-11c3-7-1-17-7-23zm-97 7 16-6v-40l-12 4c-6 2-18 14-26 26l-14 22h10c6 0 17-3 26-6zm-1579-54 6-10-63 2-63 1 45 7c25 4 50 8 57 8 6 1 15-2 18-8zm1837-17 21-3-13 15-12 15 38-1 39-2-22-4c-25-5-29-13-13-29l11-11-108-13c-59-7-116-17-125-21l-17-9-15 22c-9 12-16 25-16 29 0 7 97 28 150 32l35 2 13-9c8-6 23-11 34-13zm-2131-23h20l-6-10-6-9-32 4-32 5 30-14 30-15-22-1h-23v-12c0-7 12-25 28-41l27-30-27 5c-16 3-28 4-28 2s21-15 48-29l47-26-35 7c-58 10-120 56-147 108l-15 28 34-24c18-14 41-28 52-32l19-6-24 32c-22 29-49 81-49 93 0 2 21-5 46-15 25-11 55-20 65-20zm1214-30 6-10h-10c-6 0-11 5-11 10 0 6 2 10 4 10 3 0 8-4 11-10zm-397-26 27-14h-16c-9 0-27 9-40 21-13 11-18 18-11 14 6-3 24-13 40-21zm382-14c0-11-2-20-4-20s-6 9-9 20l-5 20h9c5 0 9-9 9-20zm698-20 19-40h-9c-5 0 1-10 12-22l21-22 19-64c11-35 20-69 20-76-1-21-44 69-45 95l-1 26-22 30c-12 17-19 33-15 36 3 4 1 12-4 19-10 13-24 58-18 58 2 0 12-18 23-40zm-1510-6c-4-3-12 5-18 18l-12 23 18-17c10-10 15-20 12-24zm442 6c-8-5-25-10-38-10h-23l6 10 6 10h64l-15-10zm1160-270c0-11-2-20-4-20s-6 9-9 20l-5 20h9c5 0 9-9 9-20zm-440-60c0-5-2-10-4-10-3 0-8 5-11 10l-6 10h10c6 0 11-4 11-10zm460-23v-8l-10 6c-5 3-10 14-10 23v17l10-15c5-8 10-19 10-23zm-517-9c-2-5 0-8 4-8 5 0 18-7 29-15l19-15-30 12c-16 7-41 18-55 25l-25 13 32-3 31-2-5-7zm62 2 6-10-15 6c-18 7-21 14-7 14 6 0 13-4 16-10zm-34-57 14-18-17 14c-10 7-18 15-18 17 0 8 8 3 21-13zm44-91c-6-7-35 18-35 31v10l20-18c11-10 18-20 15-23zm452-39-5-18v70l5-17c2-10 2-26 0-35zm-276-20 14-18-17 14c-10 7-18 15-18 17 0 8 8 3 21-13zm44-121c-3-3-11 0-18 7l-12 12 18-7c10-3 15-9 12-12zm150-102c-29-30-49-37-59-21l-6 9 18-5 17-4 24 25c14 14 27 26 30 26 2 0-8-13-24-30zm-173-92 31-39-12-12-11-11v18c0 10-11 31-25 48-28 33-33 30-9-7l16-24-4-18-3-18-23 47c-26 57-26 55-7 55h16l31-39zm90-753-6-60-6 30-7 30-10-35-11-35-1 44-1 44 7-6 7-7 13 31c18 43 22 35 15-36zm185 21 10-33-79-69c-44-38-84-71-90-73l-10-3 5 28c3 16 9 49 13 73l6 43 20 6 20 5-14 8-13 9h12c7 0 17-8 22-17l10-18 1 20v20l33 16c44 22 42 23 54-15zm-237-148c0-36-4-35-14 5l-6 27h20v-32zm-80-137-1-26-10 18-10 17 6 10 6 10h-21v55l15-29c8-15 15-40 15-55zm-1082-2-3-33-11 47-11 48 14-14 14-14-3-34zm-227-34 9 6v-13c0-7-5-20-10-28l-9-15-10 25-10 25-1-20-1-20-10 18-11 19 19 17 18 18 3-19 3-18 10 5zm26-37-5-13v50l5-12c2-7 2-19 0-25zm667-104 6-15-10 6c-6 3-10 10-10 16 0 14 7 11 14-7zm13-96-5-13-1 19c-1 11 2 17 5 13 3-3 4-12 1-19zm-86-170 12-23-16 14c-10 7-17 17-17 22 0 15 9 10 21-13zm-666-58c10-11 16-20 13-20s-13 9-23 20-16 20-13 20 13-9 23-20zm608-21-5-19-9 6c-11 6-12 38-2 47l7 7 7-11c3-6 4-20 2-30zm-556-41-5-13v50l5-12c2-7 2-19 0-25zm27-30 6-28h-20v32c0 36 4 35 14-4zm83-30-5-13-1 19c-1 11 2 17 5 13 3-3 4-12 1-19zm56 7c-3-9-8-14-10-11-3 3-2 9 2 15 9 16 15 13 8-4zm218-42 14-18-17 14c-10 7-18 15-18 17 0 8 8 3 21-13zm1377 2920c7-3 16-2 19 1 4 3-2 6-13 5l-19-1 13-5zM35 2539c22-4 51-8 65-7h25l-40 9c-22 4-51 8-65 7H-5l40-9zm96-13c2-2 22-6 44-9l40-7-20 10c-19 8-73 14-64 6zm358-17c13-11 29-19 37-19 20 0 17-15-12-61l-25-41-42-19-42-19 20-1c11-1 34-1 52 0l31 2-14-47-14-48 11-35 12-36 11 32c6 17 15 35 20 40l8 8-6-20-6-20 10-15 10-15v40c0 22 3 51 7 64l6 24-12-8c-7-4-21-21-32-39l-19-31v50l25 43 25 43-23-7c-12-4-28-9-36-12l-15-6 44 62c23 34 47 62 51 62 5 0 9 5 9 10v10h-61l5 9 6 9-32 4-32 5 23-18zM0 2335v-185h14c8 0 18-5 22-11l7-11-22 7-21 6v-91h181l4-12c3-7 6-24 8-37 2-14 9-27 15-29l12-4v63l15-15c8-8 15-21 15-29v-15l16-6c9-3 20-4 25-1l9 6v42c0 23 1 51 1 62 1 11-3 85-9 165l-12 145-14 10-14 11-7 37-7 36-17 5c-30 10-176 36-198 36H0v-185zm172-245 5-31-14 14-14 13 7 17c9 24 11 21 16-13zm2650 385v-30l5 18c2 9 2 23 0 30l-5 12v-30zm-1987-9-20-14 28 5 28 6 26-14 25-14-28-12-29-12h20c11 0 38 8 60 17l40 18-49 17c-60 21-77 21-101 3zm140-38c-11-6-45-20-75-29l-55-18h26c14-1 39 5 55 12 16 8 45 21 64 30l35 16h-15c-8 0-24-5-35-11zm65 2c0-5 5-10 10-10 6 0 10 5 10 10 0 6-4 10-10 10-5 0-10-4-10-10zm268-7c7-3 16-2 19 1 4 3-2 6-13 5l-19-1 13-5zm675-9c-7-7-13-21-13-31l1-18 15 28c17 32 16 42-3 21zm-1181-11c1-5-4-19-11-33l-13-25 25 25c23 24 26 40 6 40-5 0-8-3-7-7zm2123-23c1-11 4-23 8-26l7-7v11c0 5 3 17 6 26l6 16h-29l2-20zm-938-17c-9-9-9-51 1-56l7-5 2 34c3 35 1 39-10 27zm28-73-6-9-14 6-15 5v-8c0-5 4-15 9-22l8-13 10 13c16 21 25 38 19 38-3 0-7-4-11-10zm75-129c0-10 69-45 76-38 5 5-58 47-70 47-3 0-6-4-6-9zm845-161-6-10h10c6 0 11 5 11 10 0 6-2 10-4 10-3 0-8-4-11-10zm-2582-46c9-3 17-9 18-12 0-4 2-14 3-22 2-8 6-49 10-90 4-42 11-83 17-90l9-15-1 10c0 6-6 57-12 115l-12 105-25 2-25 2 18-5zm1332-118 20-15-12-2c-7-1-17-2-22-3-5 0-13-4-17-8-4-5-21-8-38-9h-31l20-8 20-8-32-7c-18-3-47-9-63-12l-30-6 5-8 5-9-22-7c-12-3-28-13-36-20-7-8-22-14-32-14-11 0-29-4-42-9s-43-15-67-22l-43-13 18-7 19-8h-39l-39-1 23-25 23-25h-9c-6 0-15 5-22 12l-12 12v-29l-23 35-22 35-3-22-3-22-15 6-14 5v-10c0-6 11-24 25-40l24-29-24 2c-13 2-29 6-34 10-6 3-11 4-11 1s13-12 29-20l28-15 72 6 71 6v-33h22l-11-13-11-14 20-18 20-18 31 1 32 1 8 13 8 13-24 3-25 3 5 10 6 9h-22l6 10 6 10-11 20-11 20 18 2c10 0 24 2 31 2 7 1 17 8 22 16l10 15v-35h22l-22-35-22-35h10c5 0 22 15 38 33l29 34 53 13c74 17 57 25-24 11-36-7-69-10-71-7-13 13 10 36 64 66l58 32 38 42c21 22 35 35 31 27l-7-14 29 16c16 9 58 27 94 40l65 24 50-2c28-1 60 0 73 3l24 5-28 18-28 18-91-3c-49-1-100-6-113-11l-23-8 3 14 3 14-25 3-25 4 20-16zm240-16c-3-5-14-10-23-9h-17l20 9c27 11 27 11 20 0zm-211-19 6-9-16-6c-20-8-29-1-19 13 8 13 22 14 29 2zm-343-172c-13-11-26-17-29-15-3 3 6 14 19 25s26 17 29 14c3-2-6-13-19-24zm49 17c0-2-8-10-17-17l-18-14 14 18c13 16 21 21 21 13zm1263 58c-59-61-103-128-103-156v-12l13 18 14 19 21-12 21-11 6 10 6 10h-12c-6 0-17 8-24 17l-12 17 22 24 23 25 16-6 16-6-6 23-5 23 48 42 48 41h-30l-62-66zm97-39c0-5 5-17 10-25l10-15v10c0 6-5 17-10 25l-10 15v-10zm-2484-33-19-4 7-53 6-54-27-3-28-3 2-80c1-44 7-117 14-162l11-83h28l1-12c0-7 7-69 14-138l14-125-4 108-3 107h31l-6 40-5 40 14 14 14 15v29c0 16-3 43-6 61l-6 31-9-6-9-5v10c0 5 5 13 11 17l11 6-6 32c-3 17-8 71-10 119l-5 87h34c19 0 36 3 38 8l5 7h-46c-26 0-55-2-66-3zm24-452c0-11-2-20-4-20s-6 9-9 20l-5 20h9c5 0 9-9 9-20zm266 390c-15-5-37-17-47-26l-19-18 12-8c7-4 31-8 53-9h40l-19-8-19-7 74-21c41-12 89-25 107-28l32-7-5-8c-3-4-34-13-70-20s-68-16-70-21l-5-8 32 10c18 5 63 9 100 9h68v-28l-47-15c-27-9-65-23-85-31l-38-16-16-25c-21-33-14-40 17-17 23 18 98 48 102 40 17-32 28-45 50-62l27-20 47 22c27 11 61 23 76 27l28 6 6 15 5 15-17 19-17 19 5 38 6 38-18 24-19 24 5 37 5 37-23 6c-31 8-35 2-21-35l11-31-24 23c-27 26-32 35-12 25 6-4 3 1-7 9-11 9-29 16-40 16h-21l15-11 15-10-35 6c-19 3-71 7-114 9l-80 3-4 11c-4 14-6 14-46 2zm392-165c-3-3-9 2-12 12l-7 18 12-12c7-7 10-15 7-18zm-103-25 6-10h-10c-6 0-11 5-11 10 0 6 2 10 4 10 3 0 8-4 11-10zm15-54c0-3-4-8-10-11l-10-6v10c0 6 5 11 10 11 6 0 10-2 10-4zm-403 198-14-27 18-36c9-20 27-45 39-56l21-19-11 28c-6 16-14 34-18 40-10 16-14 37-13 69 2 34-5 34-22 1zm1213-12c-14-2-56-9-93-17l-69-14-39-25c-21-15-39-31-39-36 0-6-11-15-25-20s-25-14-25-19v-10l38 16c20 8 48 23 62 33 27 18 84 40 106 40h14v-15c0-9 7-26 16-40l15-24 30-10 29-10 33 11c17 5 42 21 55 35l22 24v41l18-5c32-9 37-9 70-8l33 1-19 20-19 21-79 8c-81 9-91 9-134 3zm30-42c0-5-4-10-10-10-5 0-10 5-10 10 0 6 5 10 10 10 6 0 10-4 10-10zm62-52-12-12v10c0 6 3 14 7 17 3 4 9 5 12 2 2-3-1-11-7-17zM23 1493c15-2 37-2 50 0l22 4H-5l28-4zm2397-28c0-5 5-17 10-25l10-15v10c0 6-5 17-10 25l-10 15v-10zm-1412-82 6-28 4 19 4 18-10 10-10 10 6-29zm1415-1 13-33 23-16 23-16-10 19c-6 11-22 33-36 49l-26 30 13-33zm-1849-37c11-16 25-39 33-50 17-26 17-33-6-40l-19-6 5-19 5-19 24 11c13 6 24 15 24 20 0 19-43 97-63 115l-21 18 18-30zm1916 16c0-6 4-13 10-16l10-6-6 15c-7 18-14 21-14 7zm126-18-7-18 12 12c7 7 10 15 7 18s-9-2-12-12zm-192-16c3-11 9-30 12-43s10-24 15-24c16 0 9 34-12 60l-21 25 6-18zm73-31-6-15 8-5c4-3 11-27 14-53s9-56 12-66l7-17-15 6-15 5 20-40c11-23 21-41 23-41 7 0-6 117-16 147-6 18-8 36-6 40 3 5 0 19-7 32l-13 23-6-16zm-76-46c0-8 6-26 14-40l14-25v15c0 8-6 26-14 40l-14 25v-15zm-2081-47c0-14 19-38 25-32 8 8-5 39-16 39-5 0-9-3-9-7zM0 1179v-19h43c23 0 49 5 57 10l15 10H98c-10 0-18 3-18 8 0 4-18 8-40 8l-40 2v-19zm715 11c3-5 10-10 16-10 5 0 9 5 9 10 0 6-7 10-16 10h-15l6-10zm2271-37c-8-68-7-116 4-127l10-10v92c0 51-2 92-4 92s-7-21-10-47zm-575-15 1-23 4 12 5 12 15-6c21-8 17 5-6 17l-20 11 1-23zm-2055-2 5-13-18-7-17-7 14-9c24-16 30-12 30 20v30h-19l5-14zm2041-57 6-21 8 13c8 14 3 29-11 29h-8l5-21zm497-6c3-3 16-11 28-17l22-11 8-39c5-22 12-44 17-50 4-6 9-30 10-53l2-42-16-30c-8-16-20-33-26-37l-11-7 7 22 6 21h-28l5-29 4-29-33-48-32-48-8 20-8 19v-29l-1-28-16 13-17 14 7-21 6-20-27-25c-16-13-22-17-15-9 6 8 12 18 12 23v8l-9-6-10-5-6 10-6 10-25-27c-26-28-29-39-14-48l10-6v14c0 8 7 17 14 20l15 6-6-17c-3-9-42-53-87-96l-80-79-13 32-13 32-10-6-9-5 15-28 14-27-32-28c-27-23-193-127-203-127-1 0-8 14-15 30l-13 30-13-17c-18-24-17-31 2-29 9 0 18-4 20-9l4-10-20-13-20-12-12 25c-6 14-16 25-21 25h-9l9-13c6-6 13-20 16-29l6-17-99-57-99-56-12 8-12 7 7-11 7-11-23-12-22-12-15 20c-9 10-24 22-33 25l-17 7 6-15c3-7 9-14 15-14 5 0 16-6 24-14l14-14-63-36-62-35 21-1h20l148 90c82 50 183 109 225 132 129 70 328 197 404 257 74 59 231 222 273 285l24 35v106l-18 65c-9 36-22 73-28 84l-11 18-27 3c-15 2-25 1-22-2zm-2534-12c0-6 4-13 10-16l10-6-6 15c-7 18-14 21-14 7zm43-36v-40l4 23c2 12 2 30 0 40l-5 17 1-40zm-37-18c3-10 9-15 12-12s0 11-7 18l-12 12 7-18zm2506-69-11-11 18-26c10-14 21-35 26-46l7-20 5 14 5 13 9-13 9-14v36l-17 6c-19 7-33 22-33 36v8l10-6 10-6v9c0 5-6 14-13 21l-13 11-12-12zM412 915v-30l5 18c2 9 2 23 0 30l-5 12v-30zm818-35-15-10 30 1c17 1 41 5 55 9l25 8-40 1-40 1-15-10zm1075 2c2-3 0-13-5-23l-10-18 10-23 11-23-5 22-4 22 16-6 15-6-6 16-6 17h18l-5 13c-3 8-11 14-19 14s-13-2-10-5zm355-26c0-2 14-6 30-8l30-5v17h-30c-16 0-30-2-30-4zm90-66v-10h41l-6 10c-3 6-13 10-21 10s-14-4-14-10zm-1368-16-13-14 6-10 6-10 16 16 16 15-9 9-9 8-13-14zm1305-24-5-20h19c21 0 22 1 13 24-8 22-21 20-27-4zm110-20c3-11 9-23 14-26l9-5v43l15-12 15-13-6 17-6 16h-46l5-20zm-1322-10c3-5 8-10 11-10 2 0 4 5 4 10 0 6-5 10-11 10h-10l6-10zm1241-16c-7-19-8-17 22-33l22-12v11c0 5-4 10-10 10-5 0-10 6-10 14s-4 17-9 20l-9 6-6-16zM326 593c4-43 8-89 8-102l1-25-40-9c-22-4-85-19-140-32S43 399 27 396l-27-6v-30l28 6c15 3 85 22 157 41l130 36 22 16 22 16 2 30 2 30 4-22 4-23h12c7 0 20 7 30 14l17 13v38l10-15 10-15v30c0 17-3 48-7 70l-7 40-7-35-6-35-2 33-1 32h-50l-1-17v-18l-16 23c-8 12-20 22-25 22h-10l8-77zm651 70c-4-3-7-11-7-17v-10l12 12c6 6 9 14 7 17-3 3-9 2-12-2zm1713-3c0-5 5-10 10-10 6 0 10 5 10 10 0 6-4 10-10 10-5 0-10-4-10-10zm-664-9-6-9 13-9c6-6 18-13 26-18l13-7-17 26c-19 29-21 30-29 17zm-26-20v-13l-16 6-17 6 13-15 13-16 10 16c5 9 6 19 3 22-3 4-6 1-6-6zM793 522v-31l8 5 8 4 3-45 3-45 11 23 10 23-21 49-22 49v-32zm1737-11c0-6 5-13 10-16l10-6v15c0 9-4 16-10 16-5 0-10-4-10-9zm-50-30c0-5 5-13 10-16l10-6v10c0 5-4 13-10 16l-10 6v-10zm20-53c0-10 3-18 8-18 4 0 12 8 18 18l11 18h-37v-18zm-1287-9-6-20-12 5-13 5-6-15c-10-27-7-34 29-51l35-17-5-17-6-17 11-7 10-6-6-11-6-10 21 11 21 12v-38l1-38 17 28c9 15 22 27 28 27 13 0 28 30 19 38-3 3-16-5-30-18l-25-23v10c0 6 13 22 29 36l30 24-12 13-12 12 22-13 21-13 27 18 26 17-14 22c-8 12-21 22-28 22-8 0-22 8-31 18l-18 17h-40v-17l-1-18-10 18-10 17h-51l-5-21zm204 4c-4-3-7-10-7-14v-8l15 5c8 4 15 10 15 15 0 11-14 12-23 2zM125 376 5 344l-3-32-3-32 13 2 13 3 5-45 5-45h30v120l48 7c49 7 68 16 122 62 37 32 36 31-110-8zM57 228l-5-13-1 19c-1 11 2 17 5 13 3-3 4-12 1-19zm334 88-11-13 7-6 6-7h-33v-29l29 10c17 6 35 17 41 24l11 14-19 10-20 11-11-14zm2574-82c-11-8-38-29-59-47-59-49-253-148-289-147l-12 1 48 44c43 40 59 65 39 65-8 0-51-28-152-99-30-22-58-37-62-35-5 3-8 0-8-5V0l173 1 172 1-27 11c-16 6-28 14-28 19 0 19 86 47 198 63l42 7v18h-40v9c0 5 9 13 20 16l20 6v99h-7c-5 0-17-7-28-16zm-1649-31-7-18 12 12c7 7 10 15 7 18s-9-2-12-12zm159 8-6-11h15c8 0 20-8 25-17l10-18 1 11c0 6-9 19-19 28l-19 17-7-10zm-725-25v-25l30 1 30 1v18l10-6 10-6v20l-37-6-38-6 14 16 13 17h-32v-24zm1685-30-20-14 28 5c15 3 27 9 27 14 0 13-13 11-35-5zm-409-11c4-8 10-15 15-15h8l-5 15c-4 8-10 15-15 15h-8l5-15zm285-96-20-44 10-4c15-5 20 3 29 45 12 54 4 55-19 3zM832 40l5-15 46-5 46-6-10 12-9 11-25-5-25-4-17 13-16 14 5-15zm-114-7c6-2 18-2 25 0l12 5h-50l13-5zm72-1c0-5 7-9 15-9s15 4 15 9c0 4-7 8-15 8s-15-4-15-8zM228 13c7-3 16-2 19 1 4 3-2 6-13 5l-19-1 13-5zm720 0c7-3 16-2 19 1 4 3-2 6-13 5l-19-1 13-5zm42-3c15-10 58-14 48-5-3 3-18 8-34 11l-29 4 15-10z"/>
    </g>
  </g>
</svg>